<svg xmlns="http://www.w3.org/2000/svg" width="2048" height="2048" viewBox="0 0 2048 2048">
  <path d="M 557 1394 L 556 1394 L 554 1396 L 554 1397 L 555 1398 L 552 1401 L 549 1398 L 545 1398 L 544 1399 L 544 1401 L 545 1402 L 545 1403 L 542 1406 L 543 1407 L 547 1407 L 550 1410 L 550 1411 L 551 1412 L 552 1412 L 553 1411 L 551 1409 L 554 1406 L 557 1409 L 555 1411 L 555 1412 L 557 1414 L 557 1416 L 551 1422 L 546 1422 L 545 1423 L 545 1424 L 544 1425 L 544 1426 L 541 1429 L 539 1429 L 538 1430 L 532 1430 L 531 1429 L 530 1430 L 529 1430 L 528 1431 L 528 1434 L 529 1435 L 532 1435 L 533 1436 L 534 1436 L 540 1442 L 540 1444 L 542 1446 L 543 1446 L 544 1447 L 558 1447 L 560 1445 L 560 1440 L 561 1439 L 561 1435 L 562 1434 L 562 1433 L 557 1428 L 558 1427 L 558 1424 L 557 1423 L 557 1422 L 558 1421 L 558 1420 L 559 1419 L 559 1418 L 560 1417 L 560 1416 L 561 1415 L 561 1414 L 562 1413 L 562 1412 L 559 1409 L 559 1408 L 561 1406 L 561 1405 L 562 1404 L 560 1402 L 558 1402 L 555 1399 L 558 1396 L 558 1395 Z M 1020 1268 L 1019 1269 L 1021 1271 L 1021 1272 L 1018 1275 L 1017 1275 L 1015 1277 L 1016 1278 L 1020 1278 L 1023 1281 L 1022 1282 L 1022 1284 L 1021 1285 L 1021 1286 L 1025 1290 L 1025 1291 L 1024 1292 L 1024 1295 L 1025 1296 L 1027 1296 L 1032 1291 L 1032 1290 L 1029 1287 L 1029 1285 L 1032 1282 L 1033 1282 L 1034 1283 L 1037 1283 L 1040 1280 L 1039 1279 L 1039 1276 L 1038 1275 L 1037 1275 L 1036 1274 L 1035 1274 L 1033 1276 L 1030 1273 L 1029 1273 L 1028 1272 L 1024 1272 Z M 880 957 L 884 961 L 886 959 L 886 958 L 887 957 L 887 956 L 891 952 L 891 951 L 894 948 L 900 954 L 900 955 L 897 958 L 897 959 L 898 960 L 899 960 L 902 963 L 902 965 L 901 966 L 901 969 L 902 970 L 904 968 L 905 968 L 908 965 L 909 965 L 914 960 L 915 960 L 918 963 L 913 968 L 913 970 L 912 971 L 912 972 L 913 973 L 916 973 L 922 967 L 922 966 L 918 962 L 921 959 L 921 956 L 924 953 L 930 953 L 932 951 L 933 951 L 934 950 L 932 948 L 928 948 L 926 950 L 924 950 L 923 951 L 922 951 L 918 947 L 918 946 L 917 945 L 915 945 L 914 946 L 909 946 L 907 948 L 907 949 L 909 951 L 906 954 L 903 951 L 905 949 L 905 948 L 903 946 L 898 946 L 895 943 L 892 943 L 890 945 L 889 945 L 888 946 L 885 946 L 884 945 L 882 945 L 881 946 L 884 949 L 884 950 L 880 954 Z M 1242 923 L 1240 923 L 1239 924 L 1239 925 L 1236 928 L 1235 928 L 1233 930 L 1233 932 L 1234 933 L 1235 933 L 1236 932 L 1237 932 L 1238 931 L 1242 935 L 1241 936 L 1241 937 L 1240 938 L 1242 940 L 1238 944 L 1235 941 L 1235 940 L 1236 939 L 1236 938 L 1235 937 L 1234 937 L 1233 938 L 1233 939 L 1234 940 L 1233 941 L 1233 942 L 1229 946 L 1225 946 L 1223 948 L 1223 950 L 1224 951 L 1226 951 L 1232 945 L 1233 945 L 1236 948 L 1235 949 L 1235 950 L 1234 951 L 1235 952 L 1232 955 L 1231 955 L 1230 956 L 1229 956 L 1228 957 L 1227 957 L 1226 958 L 1225 958 L 1224 959 L 1224 960 L 1225 961 L 1226 961 L 1227 960 L 1228 960 L 1229 959 L 1230 959 L 1231 960 L 1233 960 L 1234 961 L 1235 960 L 1235 959 L 1236 958 L 1236 956 L 1239 953 L 1241 953 L 1243 951 L 1243 950 L 1247 946 L 1249 946 L 1250 945 L 1252 945 L 1254 943 L 1254 942 L 1256 940 L 1256 939 L 1255 938 L 1253 938 L 1251 940 L 1250 940 L 1249 941 L 1246 941 L 1243 938 L 1243 936 L 1241 934 L 1244 931 L 1244 925 Z M 1292 879 L 1290 879 L 1288 881 L 1288 882 L 1290 884 L 1287 887 L 1286 887 L 1283 884 L 1281 884 L 1280 885 L 1279 885 L 1278 886 L 1277 886 L 1276 887 L 1276 888 L 1279 891 L 1273 897 L 1272 897 L 1270 899 L 1270 900 L 1269 901 L 1269 902 L 1266 905 L 1264 905 L 1263 904 L 1262 905 L 1262 907 L 1261 908 L 1261 910 L 1264 913 L 1264 915 L 1263 916 L 1263 917 L 1260 920 L 1260 921 L 1259 922 L 1259 923 L 1263 927 L 1263 928 L 1260 931 L 1260 933 L 1261 934 L 1261 935 L 1260 936 L 1260 937 L 1258 939 L 1258 940 L 1260 942 L 1260 943 L 1262 945 L 1262 946 L 1259 949 L 1259 950 L 1260 951 L 1261 951 L 1265 947 L 1266 947 L 1267 946 L 1271 946 L 1274 949 L 1274 952 L 1271 955 L 1269 955 L 1268 956 L 1265 956 L 1259 962 L 1259 964 L 1260 965 L 1265 960 L 1266 960 L 1267 959 L 1268 960 L 1272 960 L 1277 955 L 1282 955 L 1284 953 L 1285 953 L 1288 950 L 1288 948 L 1287 947 L 1287 945 L 1286 944 L 1285 944 L 1284 945 L 1283 945 L 1281 947 L 1280 947 L 1277 944 L 1277 943 L 1282 938 L 1282 937 L 1279 935 L 1277 935 L 1274 932 L 1274 928 L 1273 927 L 1276 924 L 1281 924 L 1284 921 L 1284 920 L 1283 919 L 1280 919 L 1279 920 L 1278 920 L 1272 914 L 1271 914 L 1270 915 L 1268 915 L 1265 912 L 1268 909 L 1269 909 L 1274 904 L 1278 904 L 1279 903 L 1281 903 L 1284 901 L 1286 901 L 1287 900 L 1287 899 L 1290 896 L 1294 896 L 1296 894 L 1294 892 L 1294 890 L 1295 889 L 1295 887 L 1293 885 L 1293 880 Z M 1334 857 L 1333 858 L 1330 858 L 1329 859 L 1327 859 L 1324 862 L 1324 865 L 1320 869 L 1320 872 L 1323 875 L 1323 876 L 1319 880 L 1318 880 L 1317 881 L 1316 881 L 1315 882 L 1315 884 L 1316 885 L 1318 885 L 1321 882 L 1324 885 L 1323 886 L 1323 887 L 1321 889 L 1321 890 L 1320 891 L 1320 892 L 1322 894 L 1324 894 L 1327 897 L 1327 899 L 1328 900 L 1336 900 L 1337 899 L 1338 899 L 1340 897 L 1346 897 L 1347 896 L 1347 895 L 1346 894 L 1343 894 L 1342 895 L 1339 892 L 1339 891 L 1335 887 L 1332 887 L 1331 888 L 1328 885 L 1333 880 L 1336 880 L 1337 879 L 1336 878 L 1335 878 L 1332 875 L 1332 872 L 1330 870 L 1329 870 L 1327 872 L 1324 869 L 1327 866 L 1328 867 L 1333 862 L 1337 866 L 1338 865 L 1340 865 L 1341 864 L 1340 863 L 1337 863 L 1336 864 L 1333 861 L 1335 859 L 1335 858 Z M 1237 839 L 1234 839 L 1232 841 L 1232 845 L 1229 848 L 1228 848 L 1225 845 L 1224 845 L 1223 846 L 1226 849 L 1226 850 L 1227 851 L 1223 855 L 1223 857 L 1225 859 L 1224 860 L 1224 863 L 1221 866 L 1217 866 L 1214 869 L 1214 870 L 1216 872 L 1218 872 L 1219 871 L 1220 871 L 1221 870 L 1222 871 L 1223 871 L 1224 870 L 1225 870 L 1227 868 L 1227 861 L 1224 858 L 1228 854 L 1229 854 L 1230 853 L 1230 851 L 1233 848 L 1234 848 L 1235 847 L 1235 846 L 1238 843 L 1238 840 Z M 1292 835 L 1289 835 L 1288 836 L 1288 838 L 1287 839 L 1288 840 L 1288 841 L 1290 843 L 1290 844 L 1287 847 L 1285 847 L 1282 844 L 1283 843 L 1283 842 L 1282 841 L 1281 842 L 1281 843 L 1282 844 L 1279 847 L 1277 847 L 1276 848 L 1275 848 L 1274 849 L 1272 849 L 1270 851 L 1270 853 L 1273 856 L 1273 857 L 1268 862 L 1268 866 L 1272 870 L 1272 871 L 1271 872 L 1271 873 L 1272 874 L 1272 875 L 1273 876 L 1274 876 L 1276 874 L 1272 870 L 1275 867 L 1275 866 L 1277 864 L 1277 860 L 1278 859 L 1278 858 L 1276 856 L 1276 855 L 1279 852 L 1281 852 L 1284 855 L 1285 855 L 1286 854 L 1292 854 L 1293 853 L 1294 853 L 1295 852 L 1295 850 L 1291 846 L 1295 842 L 1295 841 L 1294 840 L 1294 839 L 1293 838 L 1293 836 Z M 1251 819 L 1247 819 L 1240 826 L 1240 827 L 1237 830 L 1234 830 L 1233 831 L 1235 833 L 1238 833 L 1242 837 L 1244 837 L 1247 834 L 1247 833 L 1248 832 L 1248 830 L 1247 829 L 1247 828 L 1253 822 L 1253 821 Z M 1224 812 L 1221 812 L 1216 819 L 1215 818 L 1212 819 L 1208 825 L 1207 824 L 1204 826 L 1204 832 L 1205 833 L 1207 831 L 1209 831 L 1212 835 L 1209 838 L 1207 838 L 1205 836 L 1202 839 L 1196 841 L 1196 843 L 1202 849 L 1199 852 L 1193 853 L 1186 851 L 1184 853 L 1184 855 L 1187 858 L 1185 863 L 1181 867 L 1178 867 L 1176 869 L 1177 871 L 1180 871 L 1183 874 L 1184 879 L 1186 879 L 1190 876 L 1195 880 L 1192 883 L 1193 890 L 1198 894 L 1192 898 L 1188 894 L 1186 894 L 1184 896 L 1190 897 L 1194 901 L 1189 906 L 1185 906 L 1182 909 L 1178 908 L 1174 911 L 1170 912 L 1167 915 L 1163 910 L 1160 910 L 1159 911 L 1164 917 L 1164 919 L 1160 923 L 1152 924 L 1150 926 L 1152 928 L 1154 927 L 1161 928 L 1167 921 L 1169 921 L 1175 915 L 1182 915 L 1187 910 L 1190 910 L 1193 913 L 1190 916 L 1188 916 L 1186 918 L 1186 920 L 1191 922 L 1194 925 L 1196 923 L 1200 923 L 1204 928 L 1200 931 L 1194 927 L 1189 932 L 1188 931 L 1187 932 L 1188 938 L 1191 938 L 1194 935 L 1197 938 L 1192 944 L 1187 944 L 1185 946 L 1184 950 L 1185 951 L 1189 950 L 1192 953 L 1184 959 L 1184 961 L 1186 963 L 1190 963 L 1193 961 L 1197 967 L 1201 963 L 1207 963 L 1209 961 L 1205 956 L 1199 961 L 1193 955 L 1197 950 L 1196 947 L 1201 942 L 1197 937 L 1201 934 L 1208 942 L 1205 946 L 1206 948 L 1203 952 L 1206 954 L 1211 950 L 1211 946 L 1220 940 L 1217 936 L 1220 933 L 1222 933 L 1224 935 L 1226 933 L 1225 931 L 1229 925 L 1227 922 L 1229 919 L 1225 915 L 1228 911 L 1226 910 L 1223 913 L 1218 911 L 1215 908 L 1218 905 L 1225 905 L 1230 901 L 1242 899 L 1246 896 L 1244 894 L 1240 896 L 1236 896 L 1232 894 L 1223 896 L 1220 893 L 1222 889 L 1221 886 L 1224 883 L 1235 884 L 1239 889 L 1241 889 L 1242 888 L 1241 887 L 1245 883 L 1253 884 L 1256 882 L 1256 880 L 1253 878 L 1250 880 L 1246 880 L 1238 878 L 1234 875 L 1230 878 L 1223 877 L 1216 878 L 1211 876 L 1207 872 L 1209 861 L 1206 859 L 1203 862 L 1204 872 L 1198 880 L 1195 877 L 1198 869 L 1196 859 L 1200 855 L 1205 856 L 1207 854 L 1208 848 L 1204 844 L 1207 841 L 1211 845 L 1213 845 L 1219 840 L 1224 843 L 1227 841 L 1226 838 L 1219 840 L 1213 835 L 1216 828 L 1219 825 L 1218 821 L 1221 818 L 1225 817 Z M 1279 780 L 1278 780 L 1274 784 L 1270 780 L 1268 780 L 1263 785 L 1263 786 L 1265 788 L 1266 788 L 1269 791 L 1266 794 L 1265 794 L 1264 795 L 1264 799 L 1263 800 L 1263 801 L 1258 806 L 1258 807 L 1261 810 L 1260 813 L 1258 815 L 1259 816 L 1260 819 L 1262 821 L 1262 822 L 1258 826 L 1258 827 L 1254 831 L 1254 832 L 1253 833 L 1254 834 L 1255 837 L 1249 843 L 1253 847 L 1250 850 L 1249 850 L 1248 851 L 1248 856 L 1246 858 L 1246 859 L 1239 866 L 1238 866 L 1235 869 L 1236 870 L 1243 870 L 1244 869 L 1246 869 L 1247 870 L 1249 870 L 1250 871 L 1251 871 L 1254 868 L 1254 865 L 1257 862 L 1258 862 L 1261 860 L 1261 859 L 1260 858 L 1259 858 L 1256 855 L 1256 854 L 1257 853 L 1257 852 L 1258 851 L 1259 848 L 1265 842 L 1265 841 L 1268 838 L 1271 841 L 1272 840 L 1273 840 L 1275 838 L 1275 837 L 1272 834 L 1275 831 L 1276 831 L 1278 829 L 1278 828 L 1277 827 L 1277 825 L 1273 821 L 1276 818 L 1281 818 L 1283 816 L 1283 815 L 1279 811 L 1282 808 L 1285 808 L 1286 809 L 1288 809 L 1289 808 L 1289 806 L 1288 805 L 1293 800 L 1293 799 L 1294 798 L 1294 794 L 1292 792 L 1289 792 L 1285 796 L 1284 796 L 1281 799 L 1283 801 L 1283 802 L 1280 805 L 1278 805 L 1277 806 L 1276 806 L 1273 803 L 1273 802 L 1277 798 L 1277 797 L 1276 796 L 1275 796 L 1273 798 L 1270 795 L 1273 792 L 1275 794 L 1278 791 L 1279 788 L 1281 786 L 1281 782 Z M 1252 779 L 1249 779 L 1247 781 L 1247 783 L 1248 784 L 1245 787 L 1239 787 L 1238 788 L 1238 789 L 1241 792 L 1241 794 L 1239 796 L 1239 799 L 1240 800 L 1240 803 L 1239 804 L 1240 805 L 1240 807 L 1242 809 L 1243 809 L 1244 808 L 1244 805 L 1242 803 L 1242 802 L 1245 799 L 1248 802 L 1249 802 L 1250 801 L 1250 800 L 1249 799 L 1249 798 L 1253 794 L 1253 791 L 1250 788 L 1250 787 L 1254 783 L 1254 782 L 1253 781 L 1253 780 Z M 1189 771 L 1187 769 L 1186 769 L 1184 767 L 1183 768 L 1174 768 L 1173 769 L 1172 769 L 1171 770 L 1170 770 L 1168 772 L 1168 773 L 1171 776 L 1171 777 L 1167 781 L 1166 781 L 1165 782 L 1164 782 L 1163 781 L 1161 781 L 1159 783 L 1159 785 L 1154 790 L 1154 793 L 1151 796 L 1150 796 L 1146 800 L 1146 805 L 1147 806 L 1149 806 L 1150 805 L 1150 804 L 1153 801 L 1155 801 L 1157 803 L 1160 803 L 1162 805 L 1163 805 L 1164 806 L 1165 806 L 1166 805 L 1167 805 L 1169 803 L 1168 802 L 1167 802 L 1166 801 L 1165 801 L 1161 797 L 1162 796 L 1162 795 L 1165 792 L 1165 788 L 1169 784 L 1170 784 L 1171 783 L 1173 783 L 1174 782 L 1176 782 L 1180 778 L 1183 778 L 1184 777 L 1185 777 L 1186 776 L 1187 776 L 1189 774 Z M 1318 758 L 1316 758 L 1315 759 L 1315 760 L 1319 764 L 1318 765 L 1318 768 L 1314 772 L 1311 772 L 1308 769 L 1311 766 L 1311 764 L 1309 762 L 1308 762 L 1306 764 L 1306 767 L 1307 768 L 1304 771 L 1303 771 L 1302 772 L 1302 774 L 1303 775 L 1303 776 L 1305 778 L 1306 778 L 1307 779 L 1308 779 L 1311 782 L 1308 785 L 1308 786 L 1309 787 L 1314 787 L 1316 789 L 1317 789 L 1320 792 L 1317 795 L 1309 795 L 1306 798 L 1306 799 L 1304 801 L 1304 802 L 1306 804 L 1306 805 L 1303 808 L 1300 808 L 1299 809 L 1299 810 L 1298 811 L 1298 814 L 1296 816 L 1296 818 L 1297 819 L 1302 819 L 1303 818 L 1306 821 L 1306 822 L 1303 825 L 1300 825 L 1298 827 L 1298 828 L 1297 829 L 1297 831 L 1298 832 L 1301 832 L 1304 835 L 1304 836 L 1310 842 L 1312 840 L 1312 836 L 1311 835 L 1314 832 L 1316 832 L 1317 831 L 1319 831 L 1321 829 L 1321 827 L 1319 825 L 1322 822 L 1323 822 L 1324 821 L 1326 821 L 1328 819 L 1328 817 L 1327 816 L 1327 814 L 1328 813 L 1328 812 L 1327 811 L 1324 811 L 1323 812 L 1319 812 L 1316 814 L 1314 814 L 1311 811 L 1313 809 L 1313 805 L 1317 801 L 1318 801 L 1319 800 L 1320 800 L 1322 798 L 1321 797 L 1322 796 L 1322 794 L 1319 791 L 1319 790 L 1325 784 L 1328 787 L 1329 786 L 1329 785 L 1327 783 L 1327 782 L 1328 781 L 1328 779 L 1329 778 L 1329 777 L 1331 775 L 1331 774 L 1330 773 L 1330 772 L 1327 769 L 1327 768 L 1330 765 L 1330 763 L 1327 760 L 1325 762 L 1322 762 Z M 778 752 L 778 754 L 779 755 L 785 755 L 786 754 L 789 757 L 789 758 L 790 759 L 790 760 L 794 764 L 791 767 L 790 767 L 788 769 L 790 771 L 792 771 L 798 765 L 800 767 L 804 767 L 806 765 L 806 764 L 809 761 L 810 762 L 811 762 L 816 757 L 818 757 L 819 758 L 820 758 L 821 757 L 821 756 L 820 755 L 817 755 L 816 754 L 814 754 L 813 753 L 811 753 L 809 755 L 809 756 L 810 757 L 810 760 L 807 763 L 806 762 L 800 762 L 797 759 L 797 758 L 800 755 L 800 754 L 799 753 L 798 753 L 795 750 L 795 747 L 794 746 L 794 745 L 793 744 L 793 743 L 792 742 L 790 742 L 789 741 L 788 741 L 787 740 L 786 740 L 784 742 L 784 744 L 779 749 L 779 751 Z M 1354 745 L 1352 743 L 1347 748 L 1341 742 L 1341 741 L 1338 738 L 1335 738 L 1329 744 L 1327 744 L 1326 745 L 1326 746 L 1324 748 L 1324 749 L 1323 750 L 1323 751 L 1324 752 L 1324 753 L 1325 754 L 1325 755 L 1328 758 L 1331 755 L 1331 754 L 1329 752 L 1329 748 L 1333 744 L 1336 744 L 1337 745 L 1340 745 L 1343 748 L 1343 749 L 1340 752 L 1337 752 L 1334 755 L 1334 756 L 1335 757 L 1338 757 L 1339 756 L 1341 756 L 1343 754 L 1343 753 L 1346 750 L 1347 750 L 1349 748 L 1352 748 L 1354 746 Z M 1275 733 L 1273 735 L 1273 736 L 1274 737 L 1271 740 L 1270 740 L 1269 741 L 1269 742 L 1271 744 L 1271 746 L 1268 749 L 1268 750 L 1270 752 L 1270 753 L 1269 754 L 1269 756 L 1271 758 L 1271 759 L 1270 760 L 1270 762 L 1267 765 L 1267 766 L 1268 767 L 1269 767 L 1270 766 L 1271 766 L 1273 764 L 1274 764 L 1275 763 L 1279 763 L 1280 764 L 1281 763 L 1285 763 L 1289 767 L 1291 767 L 1292 766 L 1292 764 L 1291 763 L 1290 763 L 1289 764 L 1288 764 L 1285 761 L 1285 759 L 1288 756 L 1289 757 L 1290 757 L 1291 758 L 1292 758 L 1293 757 L 1294 757 L 1295 756 L 1295 755 L 1296 754 L 1296 753 L 1298 751 L 1298 747 L 1299 746 L 1299 740 L 1298 739 L 1301 736 L 1299 734 L 1298 735 L 1299 736 L 1296 739 L 1295 739 L 1294 740 L 1294 743 L 1295 744 L 1295 745 L 1288 752 L 1288 753 L 1284 757 L 1282 757 L 1281 758 L 1278 758 L 1275 755 L 1275 754 L 1274 753 L 1274 751 L 1278 747 L 1278 746 L 1274 742 L 1274 741 L 1273 740 L 1276 737 L 1277 737 L 1278 736 L 1278 734 L 1277 733 Z M 1232 724 L 1231 724 L 1227 728 L 1222 728 L 1220 730 L 1219 730 L 1216 727 L 1215 727 L 1214 728 L 1214 729 L 1215 730 L 1216 730 L 1217 729 L 1222 734 L 1223 734 L 1226 737 L 1223 740 L 1219 740 L 1217 738 L 1211 738 L 1210 739 L 1209 739 L 1208 740 L 1208 746 L 1205 749 L 1204 749 L 1201 751 L 1201 753 L 1208 760 L 1205 763 L 1203 761 L 1200 764 L 1200 765 L 1199 766 L 1199 768 L 1201 770 L 1205 770 L 1206 769 L 1207 769 L 1210 766 L 1213 769 L 1207 776 L 1203 776 L 1202 777 L 1201 777 L 1198 780 L 1197 780 L 1194 782 L 1192 782 L 1189 785 L 1189 786 L 1191 788 L 1191 789 L 1192 790 L 1192 792 L 1195 795 L 1197 793 L 1194 790 L 1198 786 L 1199 786 L 1202 789 L 1199 792 L 1199 793 L 1203 797 L 1200 800 L 1196 800 L 1195 799 L 1192 802 L 1192 804 L 1195 807 L 1195 808 L 1193 810 L 1193 812 L 1197 816 L 1200 816 L 1205 812 L 1205 808 L 1207 805 L 1207 802 L 1204 799 L 1204 798 L 1209 793 L 1212 792 L 1214 790 L 1213 787 L 1217 783 L 1213 779 L 1213 778 L 1217 774 L 1217 771 L 1216 770 L 1215 770 L 1212 767 L 1216 763 L 1222 769 L 1223 769 L 1225 767 L 1225 764 L 1223 762 L 1219 762 L 1216 759 L 1221 754 L 1221 753 L 1224 750 L 1228 750 L 1229 749 L 1228 746 L 1232 742 L 1232 741 L 1226 735 L 1226 734 L 1227 733 L 1227 732 L 1230 729 L 1232 729 L 1234 727 L 1234 726 Z M 1333 695 L 1332 695 L 1330 697 L 1329 697 L 1326 694 L 1325 694 L 1320 699 L 1319 699 L 1318 698 L 1317 698 L 1315 696 L 1312 699 L 1312 703 L 1313 704 L 1317 704 L 1322 699 L 1325 702 L 1324 703 L 1324 706 L 1322 708 L 1322 710 L 1323 711 L 1323 714 L 1321 716 L 1321 718 L 1325 722 L 1323 724 L 1323 729 L 1322 730 L 1326 734 L 1323 737 L 1322 737 L 1321 736 L 1319 736 L 1317 738 L 1317 739 L 1316 740 L 1316 741 L 1317 742 L 1323 742 L 1325 740 L 1325 739 L 1328 736 L 1329 736 L 1331 734 L 1331 731 L 1335 727 L 1336 727 L 1337 726 L 1337 725 L 1338 724 L 1336 722 L 1335 723 L 1334 723 L 1333 724 L 1330 724 L 1327 721 L 1327 720 L 1328 719 L 1328 718 L 1329 717 L 1329 716 L 1330 715 L 1329 714 L 1328 714 L 1325 711 L 1328 708 L 1329 708 L 1330 707 L 1331 707 L 1332 708 L 1336 708 L 1337 707 L 1337 703 L 1336 702 L 1336 700 L 1335 699 L 1335 698 L 1336 697 L 1335 696 L 1334 696 Z M 1208 683 L 1205 683 L 1203 685 L 1203 687 L 1205 689 L 1205 690 L 1202 693 L 1202 694 L 1203 695 L 1203 698 L 1206 701 L 1203 704 L 1202 704 L 1199 707 L 1202 710 L 1202 711 L 1199 714 L 1202 717 L 1199 720 L 1198 720 L 1197 721 L 1198 722 L 1198 723 L 1195 726 L 1193 726 L 1192 727 L 1192 728 L 1194 730 L 1192 732 L 1192 734 L 1193 735 L 1200 735 L 1201 734 L 1201 730 L 1202 729 L 1202 727 L 1203 726 L 1203 724 L 1204 723 L 1204 721 L 1201 718 L 1206 713 L 1206 712 L 1205 711 L 1205 709 L 1209 705 L 1206 702 L 1206 701 L 1208 699 L 1208 696 L 1213 691 L 1213 690 L 1214 689 L 1214 688 L 1215 687 L 1214 686 L 1213 687 L 1212 686 L 1211 686 Z M 1338 683 L 1337 682 L 1335 682 L 1334 681 L 1333 681 L 1332 680 L 1330 680 L 1327 677 L 1325 677 L 1324 678 L 1322 678 L 1321 679 L 1320 678 L 1316 678 L 1314 680 L 1314 681 L 1313 682 L 1313 685 L 1314 686 L 1314 688 L 1312 690 L 1312 691 L 1315 694 L 1320 689 L 1324 689 L 1326 691 L 1327 691 L 1328 690 L 1329 691 L 1330 691 L 1331 692 L 1332 692 L 1334 690 L 1335 690 L 1336 689 L 1337 689 L 1338 688 Z M 1270 637 L 1269 638 L 1268 638 L 1267 639 L 1266 639 L 1265 638 L 1264 638 L 1262 636 L 1261 636 L 1259 634 L 1258 634 L 1257 635 L 1257 636 L 1258 637 L 1254 641 L 1254 642 L 1253 643 L 1253 645 L 1254 646 L 1254 647 L 1249 652 L 1249 653 L 1250 654 L 1250 659 L 1251 660 L 1256 655 L 1257 655 L 1260 658 L 1259 659 L 1260 660 L 1262 658 L 1262 657 L 1263 656 L 1263 655 L 1264 654 L 1261 651 L 1261 646 L 1264 643 L 1266 643 L 1267 644 L 1268 644 L 1270 642 L 1270 641 L 1271 640 L 1271 638 Z M 1220 626 L 1217 626 L 1216 627 L 1214 627 L 1212 629 L 1212 631 L 1216 635 L 1213 638 L 1213 639 L 1214 640 L 1214 641 L 1208 647 L 1211 650 L 1211 651 L 1210 652 L 1210 654 L 1209 655 L 1210 656 L 1212 656 L 1213 655 L 1213 652 L 1216 649 L 1218 649 L 1219 648 L 1220 648 L 1221 647 L 1221 644 L 1220 643 L 1220 639 L 1216 635 L 1216 634 L 1219 631 L 1219 630 L 1221 628 L 1221 627 Z M 1344 607 L 1340 607 L 1339 608 L 1335 608 L 1334 609 L 1334 612 L 1335 613 L 1335 615 L 1331 619 L 1330 619 L 1329 620 L 1328 620 L 1326 622 L 1327 623 L 1328 623 L 1329 624 L 1330 624 L 1334 628 L 1330 632 L 1329 632 L 1327 634 L 1326 634 L 1325 635 L 1326 636 L 1322 640 L 1322 641 L 1323 642 L 1325 642 L 1327 644 L 1329 642 L 1330 643 L 1331 643 L 1332 642 L 1332 641 L 1338 635 L 1338 633 L 1334 629 L 1334 628 L 1337 625 L 1339 625 L 1340 624 L 1341 624 L 1343 622 L 1343 621 L 1340 618 L 1341 617 L 1341 614 L 1345 610 L 1345 608 Z M 1408 558 L 1388 550 L 1383 556 L 1323 561 L 1316 571 L 1312 568 L 1318 562 L 1311 560 L 1269 575 L 1229 576 L 1219 567 L 1092 583 L 1075 570 L 1070 586 L 1047 573 L 1042 559 L 1023 573 L 980 573 L 976 564 L 967 566 L 963 560 L 958 590 L 950 588 L 941 596 L 941 588 L 933 584 L 920 588 L 919 598 L 907 582 L 893 596 L 883 591 L 890 584 L 826 576 L 762 585 L 709 574 L 679 579 L 671 571 L 630 573 L 570 561 L 564 579 L 543 594 L 547 600 L 538 632 L 555 663 L 550 667 L 555 683 L 545 686 L 557 699 L 551 708 L 558 735 L 552 749 L 556 785 L 568 791 L 556 810 L 567 822 L 565 845 L 570 851 L 558 851 L 552 864 L 574 894 L 579 929 L 571 957 L 579 963 L 575 996 L 554 1044 L 560 1084 L 555 1112 L 526 1134 L 496 1180 L 497 1211 L 491 1224 L 496 1233 L 490 1243 L 498 1255 L 492 1260 L 480 1315 L 500 1352 L 556 1385 L 583 1392 L 590 1404 L 601 1405 L 635 1429 L 647 1427 L 666 1437 L 701 1436 L 713 1444 L 722 1440 L 725 1450 L 740 1441 L 745 1450 L 767 1452 L 774 1465 L 789 1456 L 796 1461 L 809 1451 L 814 1463 L 816 1455 L 830 1452 L 841 1467 L 844 1459 L 861 1460 L 876 1450 L 913 1459 L 940 1451 L 978 1451 L 990 1461 L 1013 1462 L 1060 1442 L 1087 1451 L 1104 1451 L 1115 1441 L 1144 1449 L 1150 1441 L 1167 1444 L 1177 1430 L 1187 1438 L 1196 1433 L 1206 1439 L 1250 1433 L 1280 1444 L 1290 1436 L 1298 1443 L 1304 1435 L 1332 1428 L 1353 1441 L 1375 1435 L 1386 1419 L 1378 1417 L 1394 1405 L 1416 1411 L 1459 1402 L 1472 1411 L 1485 1402 L 1515 1400 L 1518 1396 L 1511 1392 L 1464 1397 L 1451 1391 L 1481 1363 L 1485 1343 L 1505 1322 L 1528 1316 L 1515 1311 L 1548 1278 L 1545 1267 L 1557 1223 L 1549 1212 L 1538 1135 L 1529 1128 L 1533 1115 L 1509 1084 L 1515 1076 L 1505 1070 L 1504 1047 L 1492 1046 L 1481 1020 L 1482 986 L 1468 952 L 1471 933 L 1440 851 L 1446 845 L 1436 839 L 1443 820 L 1436 793 L 1425 783 L 1430 777 L 1423 772 L 1426 726 L 1420 712 L 1426 680 L 1417 675 L 1419 653 L 1426 656 L 1425 663 L 1431 659 L 1419 646 L 1427 592 L 1420 577 L 1407 574 Z M 674 1354 L 680 1348 L 685 1353 L 687 1353 L 688 1352 L 691 1355 L 691 1356 L 692 1357 L 692 1359 L 693 1360 L 695 1360 L 697 1358 L 698 1358 L 701 1355 L 704 1358 L 704 1359 L 703 1360 L 703 1362 L 699 1366 L 698 1366 L 697 1367 L 695 1367 L 694 1368 L 693 1368 L 690 1371 L 687 1368 L 687 1365 L 688 1364 L 688 1363 L 685 1360 L 685 1359 L 684 1358 L 683 1359 L 682 1359 L 680 1361 L 677 1358 L 677 1357 Z M 693 1346 L 696 1343 L 697 1343 L 699 1341 L 700 1341 L 704 1345 L 709 1345 L 712 1348 L 712 1351 L 709 1354 L 703 1354 L 702 1353 L 700 1353 L 699 1352 L 697 1352 L 694 1349 L 694 1348 L 693 1347 Z M 529 1339 L 533 1335 L 534 1336 L 535 1336 L 536 1337 L 538 1337 L 539 1338 L 545 1338 L 546 1337 L 547 1337 L 550 1340 L 549 1341 L 549 1342 L 553 1346 L 553 1347 L 552 1348 L 552 1349 L 553 1350 L 553 1351 L 550 1354 L 548 1354 L 547 1353 L 546 1354 L 543 1354 L 539 1350 L 539 1349 L 538 1348 L 538 1347 L 536 1345 L 532 1345 L 529 1342 Z M 620 1319 L 623 1322 L 623 1323 L 627 1327 L 630 1327 L 634 1331 L 634 1336 L 631 1339 L 630 1339 L 627 1336 L 628 1335 L 628 1333 L 627 1332 L 619 1332 L 616 1329 L 616 1325 L 617 1324 L 617 1322 Z M 964 1265 L 969 1270 L 969 1272 L 966 1275 L 961 1275 L 959 1277 L 959 1283 L 960 1284 L 960 1285 L 957 1288 L 956 1288 L 953 1285 L 953 1284 L 949 1280 L 949 1279 L 953 1275 L 953 1274 L 951 1272 L 954 1269 L 955 1269 L 956 1268 L 959 1268 L 962 1265 Z M 603 1255 L 602 1256 L 602 1259 L 599 1262 L 598 1262 L 596 1260 L 592 1260 L 588 1264 L 590 1266 L 587 1269 L 586 1269 L 585 1270 L 584 1270 L 583 1271 L 582 1271 L 579 1268 L 579 1267 L 574 1262 L 577 1259 L 579 1259 L 581 1257 L 581 1256 L 585 1252 L 589 1252 L 590 1251 L 591 1252 L 592 1252 L 593 1253 L 599 1253 L 600 1252 Z M 1246 1239 L 1249 1242 L 1249 1245 L 1246 1248 L 1245 1248 L 1244 1249 L 1243 1249 L 1240 1252 L 1240 1253 L 1241 1254 L 1241 1255 L 1237 1259 L 1236 1259 L 1235 1260 L 1234 1260 L 1230 1264 L 1230 1265 L 1229 1266 L 1232 1269 L 1232 1271 L 1231 1272 L 1231 1273 L 1228 1276 L 1225 1273 L 1223 1273 L 1222 1274 L 1222 1279 L 1221 1280 L 1221 1281 L 1218 1284 L 1217 1284 L 1216 1285 L 1214 1285 L 1213 1286 L 1212 1286 L 1209 1289 L 1206 1286 L 1204 1286 L 1200 1290 L 1197 1287 L 1197 1285 L 1201 1281 L 1202 1282 L 1204 1280 L 1205 1280 L 1208 1277 L 1210 1277 L 1212 1279 L 1213 1279 L 1215 1277 L 1215 1276 L 1216 1275 L 1216 1273 L 1214 1271 L 1219 1266 L 1219 1264 L 1220 1263 L 1220 1262 L 1224 1258 L 1224 1257 L 1225 1256 L 1225 1255 L 1229 1251 L 1232 1251 L 1233 1250 L 1232 1249 L 1232 1247 L 1235 1244 L 1237 1244 L 1238 1245 L 1240 1245 Z M 1059 1242 L 1059 1248 L 1061 1251 L 1061 1254 L 1060 1255 L 1060 1261 L 1061 1262 L 1061 1267 L 1062 1268 L 1060 1272 L 1060 1275 L 1062 1278 L 1062 1279 L 1060 1281 L 1061 1285 L 1058 1288 L 1054 1289 L 1053 1290 L 1055 1292 L 1055 1293 L 1051 1297 L 1049 1297 L 1045 1299 L 1043 1301 L 1041 1301 L 1039 1299 L 1035 1299 L 1034 1300 L 1028 1300 L 1026 1302 L 1027 1303 L 1033 1303 L 1036 1306 L 1033 1309 L 1032 1309 L 1031 1310 L 1031 1312 L 1021 1321 L 1020 1321 L 1018 1323 L 1014 1324 L 1011 1321 L 1011 1320 L 1009 1319 L 1008 1320 L 1011 1323 L 1011 1324 L 1008 1327 L 1006 1327 L 1003 1324 L 1003 1322 L 998 1317 L 1000 1315 L 999 1314 L 998 1315 L 999 1316 L 996 1319 L 994 1318 L 990 1314 L 993 1311 L 993 1307 L 991 1305 L 990 1305 L 985 1310 L 982 1310 L 979 1312 L 978 1312 L 974 1308 L 977 1305 L 980 1305 L 981 1303 L 979 1301 L 978 1301 L 976 1303 L 973 1300 L 975 1298 L 971 1294 L 971 1293 L 973 1291 L 973 1285 L 971 1284 L 969 1286 L 965 1282 L 965 1280 L 974 1272 L 979 1272 L 981 1274 L 984 1271 L 980 1267 L 976 1269 L 973 1266 L 974 1264 L 970 1260 L 974 1256 L 972 1254 L 972 1253 L 975 1250 L 978 1253 L 977 1255 L 981 1259 L 981 1260 L 978 1263 L 979 1265 L 980 1265 L 982 1263 L 981 1260 L 984 1257 L 986 1257 L 989 1260 L 989 1261 L 987 1263 L 990 1266 L 990 1268 L 987 1271 L 988 1274 L 983 1278 L 981 1277 L 977 1282 L 980 1285 L 983 1286 L 984 1285 L 987 1285 L 988 1284 L 990 1284 L 994 1282 L 997 1282 L 999 1284 L 1000 1283 L 1000 1280 L 1018 1264 L 1019 1265 L 1025 1258 L 1028 1261 L 1026 1263 L 1026 1264 L 1028 1266 L 1029 1266 L 1032 1263 L 1032 1262 L 1028 1258 L 1034 1251 L 1039 1251 L 1042 1254 L 1041 1255 L 1041 1258 L 1043 1260 L 1044 1260 L 1050 1253 L 1052 1254 L 1054 1254 L 1055 1253 L 1054 1250 L 1052 1248 L 1051 1248 L 1048 1245 L 1048 1244 L 1054 1239 L 1056 1239 Z M 587 1238 L 590 1235 L 594 1239 L 596 1239 L 600 1235 L 603 1238 L 603 1239 L 602 1240 L 602 1241 L 601 1242 L 601 1243 L 603 1245 L 607 1245 L 608 1244 L 609 1244 L 612 1247 L 611 1248 L 611 1250 L 612 1251 L 612 1252 L 609 1255 L 608 1255 L 605 1252 L 603 1252 L 602 1253 L 599 1250 L 599 1249 L 597 1247 L 596 1247 L 595 1248 L 593 1248 L 589 1244 L 589 1243 L 587 1241 Z M 1170 1237 L 1173 1234 L 1176 1234 L 1177 1233 L 1178 1233 L 1181 1230 L 1182 1230 L 1186 1234 L 1183 1237 L 1181 1237 L 1179 1239 L 1179 1241 L 1181 1243 L 1183 1243 L 1188 1238 L 1189 1238 L 1190 1239 L 1192 1239 L 1193 1240 L 1194 1239 L 1195 1239 L 1197 1237 L 1200 1240 L 1207 1240 L 1208 1239 L 1211 1239 L 1212 1238 L 1212 1235 L 1215 1232 L 1217 1232 L 1220 1235 L 1218 1237 L 1218 1240 L 1213 1245 L 1213 1246 L 1214 1247 L 1214 1248 L 1210 1252 L 1212 1254 L 1208 1258 L 1208 1259 L 1211 1262 L 1208 1265 L 1207 1265 L 1206 1264 L 1204 1264 L 1201 1261 L 1203 1259 L 1203 1258 L 1201 1256 L 1201 1255 L 1205 1251 L 1203 1249 L 1201 1249 L 1198 1252 L 1197 1252 L 1194 1249 L 1194 1248 L 1195 1247 L 1194 1246 L 1193 1246 L 1192 1247 L 1192 1248 L 1189 1251 L 1186 1251 L 1185 1250 L 1184 1251 L 1186 1253 L 1186 1254 L 1183 1257 L 1182 1257 L 1181 1258 L 1180 1258 L 1178 1260 L 1177 1260 L 1176 1259 L 1174 1259 L 1173 1258 L 1169 1258 L 1166 1255 L 1166 1254 L 1167 1253 L 1167 1251 L 1172 1246 L 1172 1242 L 1173 1241 L 1173 1240 Z M 998 1224 L 995 1227 L 994 1227 L 993 1226 L 992 1226 L 990 1224 L 988 1226 L 988 1227 L 987 1228 L 987 1229 L 990 1232 L 987 1235 L 984 1235 L 981 1232 L 981 1231 L 979 1229 L 976 1232 L 974 1232 L 970 1228 L 970 1227 L 974 1223 L 980 1223 L 981 1222 L 982 1222 L 985 1219 L 986 1219 L 989 1222 L 990 1222 L 991 1221 L 990 1220 L 993 1217 L 994 1217 L 997 1220 L 996 1221 L 996 1222 Z M 1228 1209 L 1231 1212 L 1227 1216 L 1224 1216 L 1223 1217 L 1222 1217 L 1219 1220 L 1219 1221 L 1220 1222 L 1220 1225 L 1216 1229 L 1212 1229 L 1211 1230 L 1210 1230 L 1207 1227 L 1212 1222 L 1213 1222 L 1216 1219 L 1215 1218 L 1215 1217 L 1213 1215 L 1213 1212 L 1216 1209 L 1218 1211 L 1219 1211 L 1220 1212 L 1222 1212 L 1223 1211 L 1224 1211 L 1226 1209 Z M 598 1212 L 602 1208 L 603 1209 L 605 1209 L 609 1205 L 610 1205 L 613 1208 L 614 1208 L 615 1209 L 617 1209 L 620 1212 L 620 1214 L 617 1217 L 613 1217 L 612 1218 L 609 1218 L 606 1215 L 605 1215 L 604 1216 L 601 1216 L 598 1213 Z M 763 1203 L 766 1203 L 767 1204 L 769 1204 L 772 1207 L 772 1208 L 778 1214 L 778 1215 L 776 1217 L 776 1219 L 777 1220 L 779 1220 L 780 1219 L 783 1219 L 786 1222 L 786 1223 L 785 1224 L 786 1225 L 786 1226 L 783 1229 L 780 1229 L 779 1228 L 778 1228 L 777 1227 L 776 1227 L 775 1228 L 775 1231 L 776 1232 L 776 1234 L 772 1238 L 775 1241 L 775 1246 L 778 1249 L 778 1250 L 773 1255 L 770 1252 L 771 1251 L 768 1248 L 762 1248 L 761 1247 L 753 1247 L 752 1246 L 751 1246 L 748 1243 L 748 1242 L 751 1239 L 752 1239 L 753 1238 L 755 1238 L 757 1236 L 757 1235 L 758 1234 L 758 1233 L 759 1232 L 759 1231 L 760 1230 L 760 1227 L 763 1224 L 766 1227 L 766 1228 L 768 1230 L 769 1229 L 769 1226 L 770 1225 L 770 1221 L 769 1220 L 767 1220 L 766 1219 L 765 1219 L 761 1215 L 760 1215 L 759 1216 L 750 1216 L 747 1213 L 753 1207 L 758 1207 L 760 1205 L 761 1205 Z M 1291 1185 L 1295 1189 L 1291 1193 L 1296 1198 L 1295 1199 L 1295 1201 L 1296 1202 L 1293 1205 L 1290 1202 L 1286 1206 L 1284 1206 L 1281 1203 L 1281 1200 L 1283 1198 L 1283 1197 L 1288 1192 L 1287 1191 L 1287 1189 Z M 1218 1186 L 1218 1187 L 1217 1188 L 1217 1189 L 1216 1190 L 1216 1191 L 1213 1194 L 1210 1194 L 1209 1195 L 1207 1195 L 1206 1196 L 1205 1196 L 1202 1193 L 1200 1193 L 1199 1194 L 1198 1193 L 1197 1193 L 1193 1189 L 1197 1185 L 1203 1185 L 1205 1183 L 1210 1188 L 1211 1187 L 1211 1185 L 1214 1182 Z M 1476 1191 L 1479 1188 L 1480 1188 L 1482 1186 L 1482 1184 L 1485 1181 L 1488 1184 L 1489 1184 L 1490 1185 L 1491 1185 L 1494 1188 L 1495 1188 L 1498 1191 L 1495 1194 L 1494 1194 L 1492 1192 L 1488 1192 L 1485 1195 L 1484 1195 L 1483 1196 L 1482 1195 L 1481 1195 L 1480 1194 L 1479 1194 Z M 661 1172 L 664 1175 L 664 1176 L 663 1177 L 663 1178 L 660 1181 L 660 1182 L 659 1183 L 659 1184 L 660 1185 L 660 1187 L 661 1188 L 658 1191 L 659 1192 L 659 1195 L 656 1198 L 655 1197 L 651 1197 L 650 1198 L 646 1198 L 643 1195 L 645 1193 L 644 1192 L 642 1192 L 639 1189 L 639 1188 L 644 1183 L 644 1182 L 645 1181 L 645 1180 L 648 1177 L 653 1177 L 658 1172 Z M 942 1169 L 943 1166 L 945 1164 L 945 1163 L 946 1162 L 946 1156 L 947 1155 L 947 1150 L 950 1147 L 952 1147 L 954 1149 L 955 1149 L 956 1150 L 957 1150 L 958 1149 L 959 1149 L 961 1147 L 962 1147 L 963 1148 L 964 1148 L 968 1152 L 969 1152 L 970 1151 L 972 1151 L 975 1149 L 980 1149 L 981 1150 L 982 1150 L 983 1151 L 985 1151 L 990 1154 L 994 1154 L 995 1155 L 998 1156 L 1000 1158 L 1001 1158 L 1006 1163 L 1007 1163 L 1010 1161 L 1012 1161 L 1016 1157 L 1018 1157 L 1020 1155 L 1022 1155 L 1026 1159 L 1028 1159 L 1031 1157 L 1034 1157 L 1035 1156 L 1036 1156 L 1037 1155 L 1039 1155 L 1040 1154 L 1043 1155 L 1045 1157 L 1049 1157 L 1051 1159 L 1052 1159 L 1053 1160 L 1054 1159 L 1060 1159 L 1063 1162 L 1061 1164 L 1062 1165 L 1064 1165 L 1065 1164 L 1065 1163 L 1068 1160 L 1069 1160 L 1070 1159 L 1075 1164 L 1080 1159 L 1082 1159 L 1085 1162 L 1085 1163 L 1082 1166 L 1080 1166 L 1078 1168 L 1078 1172 L 1081 1175 L 1081 1176 L 1076 1181 L 1070 1181 L 1069 1182 L 1067 1182 L 1062 1179 L 1059 1179 L 1058 1180 L 1057 1180 L 1056 1179 L 1054 1179 L 1053 1178 L 1050 1178 L 1046 1182 L 1043 1182 L 1042 1181 L 1041 1181 L 1040 1180 L 1038 1180 L 1037 1179 L 1036 1179 L 1035 1180 L 1029 1180 L 1027 1178 L 1025 1180 L 1018 1180 L 1017 1179 L 1009 1179 L 1008 1178 L 1001 1178 L 999 1176 L 997 1176 L 994 1179 L 990 1179 L 989 1178 L 976 1178 L 974 1180 L 971 1180 L 968 1177 L 971 1174 L 971 1171 L 970 1170 L 964 1170 L 961 1168 L 957 1168 L 955 1170 L 954 1170 L 953 1171 L 947 1171 L 946 1172 L 945 1172 Z M 1247 1138 L 1250 1141 L 1247 1144 L 1248 1145 L 1248 1149 L 1249 1150 L 1249 1151 L 1252 1154 L 1248 1158 L 1246 1158 L 1245 1159 L 1244 1159 L 1243 1158 L 1239 1158 L 1237 1160 L 1235 1160 L 1234 1159 L 1232 1159 L 1231 1160 L 1228 1160 L 1225 1157 L 1229 1153 L 1231 1153 L 1232 1152 L 1233 1152 L 1234 1151 L 1235 1151 L 1236 1150 L 1237 1150 L 1238 1149 L 1233 1144 L 1233 1141 L 1236 1138 L 1239 1141 L 1241 1141 L 1243 1139 L 1244 1139 L 1245 1138 Z M 1298 1125 L 1301 1122 L 1302 1122 L 1303 1121 L 1306 1121 L 1307 1120 L 1309 1120 L 1310 1121 L 1311 1121 L 1314 1124 L 1318 1120 L 1321 1123 L 1321 1124 L 1322 1125 L 1322 1127 L 1319 1130 L 1317 1128 L 1316 1128 L 1315 1127 L 1314 1128 L 1314 1129 L 1311 1132 L 1310 1132 L 1305 1127 L 1304 1127 L 1303 1128 L 1301 1128 Z M 1252 1134 L 1255 1131 L 1256 1131 L 1257 1132 L 1258 1132 L 1259 1131 L 1260 1131 L 1272 1119 L 1275 1122 L 1277 1122 L 1278 1123 L 1279 1123 L 1281 1121 L 1287 1121 L 1288 1122 L 1290 1122 L 1291 1121 L 1292 1121 L 1296 1125 L 1295 1126 L 1295 1127 L 1292 1130 L 1289 1130 L 1288 1131 L 1289 1132 L 1289 1133 L 1293 1137 L 1293 1141 L 1295 1143 L 1298 1143 L 1301 1146 L 1300 1147 L 1300 1148 L 1302 1150 L 1303 1150 L 1305 1152 L 1308 1149 L 1309 1149 L 1313 1153 L 1310 1156 L 1308 1156 L 1306 1154 L 1305 1154 L 1303 1156 L 1302 1156 L 1301 1157 L 1301 1159 L 1302 1160 L 1299 1163 L 1296 1163 L 1295 1164 L 1293 1164 L 1292 1165 L 1289 1162 L 1290 1161 L 1290 1160 L 1291 1159 L 1291 1158 L 1292 1157 L 1292 1156 L 1291 1155 L 1290 1155 L 1289 1154 L 1287 1154 L 1285 1156 L 1282 1156 L 1281 1155 L 1280 1155 L 1279 1156 L 1278 1156 L 1277 1157 L 1276 1157 L 1275 1158 L 1272 1155 L 1272 1149 L 1270 1147 L 1270 1146 L 1268 1144 L 1265 1147 L 1261 1143 L 1261 1142 L 1260 1141 L 1260 1138 L 1258 1136 L 1257 1136 L 1256 1137 L 1255 1137 Z M 717 1113 L 720 1116 L 720 1118 L 719 1119 L 719 1120 L 722 1123 L 722 1125 L 721 1126 L 721 1127 L 722 1128 L 723 1128 L 724 1127 L 725 1127 L 728 1130 L 723 1135 L 722 1134 L 721 1135 L 719 1135 L 718 1134 L 715 1134 L 713 1136 L 712 1136 L 711 1137 L 710 1136 L 709 1136 L 705 1132 L 708 1129 L 713 1129 L 714 1128 L 711 1125 L 711 1124 L 714 1121 L 714 1120 L 712 1118 Z M 1230 1116 L 1235 1111 L 1239 1115 L 1241 1115 L 1244 1112 L 1248 1116 L 1248 1117 L 1249 1118 L 1250 1118 L 1251 1117 L 1253 1117 L 1256 1120 L 1256 1122 L 1252 1126 L 1248 1126 L 1247 1127 L 1244 1127 L 1243 1128 L 1241 1128 L 1240 1129 L 1239 1129 L 1238 1130 L 1235 1130 L 1232 1127 L 1232 1126 L 1233 1125 L 1233 1120 L 1230 1117 Z M 832 1108 L 835 1111 L 835 1113 L 834 1114 L 834 1116 L 836 1118 L 836 1119 L 833 1122 L 830 1122 L 829 1123 L 826 1123 L 825 1122 L 824 1123 L 824 1125 L 826 1128 L 826 1131 L 824 1133 L 826 1135 L 823 1138 L 820 1135 L 822 1133 L 819 1130 L 818 1130 L 816 1132 L 816 1134 L 818 1136 L 815 1139 L 809 1139 L 808 1138 L 805 1139 L 804 1138 L 802 1140 L 803 1141 L 805 1139 L 808 1142 L 805 1145 L 804 1144 L 801 1147 L 801 1149 L 805 1153 L 805 1155 L 803 1157 L 803 1159 L 806 1164 L 806 1170 L 802 1174 L 799 1174 L 793 1180 L 790 1180 L 787 1177 L 787 1176 L 788 1175 L 787 1174 L 778 1174 L 777 1175 L 778 1176 L 781 1176 L 784 1179 L 783 1180 L 783 1183 L 778 1188 L 777 1188 L 776 1189 L 774 1189 L 773 1188 L 771 1188 L 769 1190 L 769 1191 L 770 1192 L 771 1191 L 774 1191 L 778 1195 L 779 1195 L 781 1193 L 784 1196 L 784 1199 L 781 1202 L 780 1202 L 778 1200 L 776 1200 L 774 1202 L 770 1202 L 767 1199 L 766 1199 L 764 1201 L 761 1200 L 758 1197 L 758 1194 L 762 1190 L 762 1186 L 764 1183 L 760 1179 L 760 1178 L 762 1176 L 762 1175 L 761 1174 L 765 1170 L 766 1170 L 774 1162 L 777 1162 L 779 1159 L 779 1156 L 784 1151 L 785 1151 L 787 1149 L 787 1148 L 789 1146 L 785 1142 L 785 1141 L 788 1138 L 792 1138 L 793 1137 L 794 1137 L 795 1136 L 795 1134 L 799 1130 L 800 1130 L 803 1127 L 804 1127 L 806 1125 L 807 1125 L 809 1122 L 809 1119 L 812 1116 L 817 1116 L 818 1117 L 819 1117 L 821 1119 L 822 1119 L 823 1118 L 823 1115 L 824 1114 L 824 1113 L 827 1110 L 829 1110 Z M 933 1107 L 936 1110 L 934 1112 L 934 1114 L 938 1119 L 938 1125 L 936 1127 L 938 1131 L 932 1135 L 932 1137 L 929 1141 L 930 1142 L 929 1145 L 930 1152 L 928 1154 L 928 1156 L 920 1164 L 920 1166 L 916 1170 L 918 1174 L 915 1178 L 917 1180 L 920 1179 L 927 1181 L 931 1185 L 928 1189 L 928 1195 L 935 1204 L 930 1208 L 930 1210 L 931 1211 L 935 1210 L 939 1214 L 938 1216 L 940 1222 L 936 1226 L 932 1224 L 930 1226 L 924 1226 L 920 1230 L 917 1227 L 923 1220 L 925 1215 L 923 1213 L 920 1213 L 916 1209 L 915 1205 L 913 1204 L 910 1205 L 906 1201 L 904 1201 L 902 1203 L 903 1205 L 908 1204 L 911 1207 L 905 1212 L 899 1212 L 895 1209 L 889 1208 L 882 1211 L 879 1214 L 879 1216 L 881 1218 L 878 1221 L 876 1220 L 871 1225 L 869 1225 L 865 1222 L 861 1226 L 854 1225 L 847 1231 L 843 1228 L 840 1231 L 834 1231 L 831 1228 L 834 1224 L 849 1223 L 851 1221 L 850 1219 L 851 1215 L 843 1209 L 844 1208 L 843 1206 L 835 1205 L 832 1202 L 834 1200 L 833 1198 L 830 1198 L 828 1200 L 830 1204 L 827 1207 L 822 1209 L 816 1205 L 810 1205 L 807 1202 L 814 1194 L 818 1196 L 819 1193 L 816 1192 L 813 1195 L 808 1191 L 811 1185 L 810 1183 L 806 1183 L 801 1185 L 798 1182 L 806 1176 L 810 1170 L 816 1170 L 817 1169 L 817 1167 L 810 1162 L 812 1160 L 812 1158 L 815 1155 L 821 1163 L 827 1162 L 830 1165 L 823 1172 L 824 1175 L 826 1177 L 836 1178 L 839 1175 L 837 1172 L 848 1161 L 856 1155 L 859 1158 L 858 1160 L 862 1161 L 865 1164 L 863 1171 L 867 1175 L 864 1178 L 861 1178 L 858 1175 L 859 1173 L 855 1169 L 856 1168 L 855 1166 L 852 1166 L 842 1174 L 845 1177 L 851 1177 L 855 1182 L 861 1182 L 862 1181 L 866 1187 L 869 1187 L 871 1185 L 871 1183 L 866 1178 L 874 1167 L 876 1167 L 879 1170 L 876 1173 L 876 1176 L 874 1178 L 874 1180 L 876 1182 L 879 1181 L 883 1175 L 886 1175 L 889 1173 L 888 1169 L 890 1167 L 889 1166 L 885 1167 L 881 1171 L 878 1168 L 881 1164 L 877 1159 L 886 1152 L 887 1147 L 889 1145 L 890 1141 L 896 1135 L 898 1128 L 906 1122 L 907 1118 L 911 1114 L 917 1116 L 918 1115 L 917 1112 L 924 1105 L 929 1105 Z M 1297 1104 L 1300 1101 L 1301 1101 L 1302 1100 L 1302 1098 L 1301 1097 L 1301 1096 L 1304 1093 L 1306 1095 L 1307 1095 L 1310 1098 L 1312 1098 L 1313 1099 L 1314 1099 L 1316 1101 L 1318 1101 L 1321 1104 L 1317 1108 L 1315 1108 L 1313 1106 L 1312 1106 L 1309 1103 L 1305 1103 L 1301 1107 L 1300 1107 Z M 962 1085 L 964 1085 L 965 1084 L 967 1084 L 971 1088 L 969 1090 L 969 1092 L 970 1093 L 971 1093 L 973 1091 L 974 1091 L 978 1095 L 975 1098 L 973 1098 L 971 1096 L 970 1096 L 969 1097 L 969 1098 L 968 1099 L 968 1100 L 969 1101 L 973 1101 L 976 1104 L 976 1105 L 972 1109 L 971 1109 L 970 1110 L 970 1112 L 971 1113 L 976 1113 L 979 1116 L 977 1118 L 977 1120 L 980 1123 L 981 1123 L 982 1122 L 985 1122 L 988 1125 L 989 1125 L 992 1122 L 994 1122 L 999 1127 L 999 1128 L 995 1132 L 995 1133 L 992 1136 L 991 1136 L 989 1134 L 985 1134 L 984 1135 L 983 1135 L 982 1136 L 978 1136 L 977 1135 L 963 1135 L 960 1132 L 960 1122 L 963 1119 L 963 1117 L 964 1116 L 964 1111 L 966 1109 L 966 1107 L 965 1106 L 965 1105 L 961 1101 L 961 1091 L 959 1089 L 959 1088 Z M 651 1054 L 652 1054 L 656 1058 L 656 1059 L 657 1060 L 657 1061 L 656 1062 L 656 1064 L 657 1065 L 654 1068 L 653 1067 L 652 1068 L 658 1074 L 658 1075 L 656 1077 L 659 1080 L 659 1081 L 657 1083 L 657 1085 L 659 1087 L 662 1087 L 665 1084 L 668 1087 L 668 1088 L 667 1089 L 667 1090 L 668 1091 L 668 1092 L 664 1096 L 664 1097 L 668 1101 L 665 1104 L 662 1104 L 661 1103 L 659 1103 L 657 1105 L 656 1105 L 653 1102 L 653 1100 L 656 1097 L 656 1096 L 657 1095 L 657 1093 L 654 1090 L 649 1090 L 648 1089 L 647 1089 L 645 1087 L 643 1087 L 638 1092 L 634 1088 L 634 1086 L 635 1085 L 635 1084 L 641 1078 L 641 1075 L 639 1073 L 642 1070 L 642 1068 L 645 1065 L 646 1065 L 647 1064 L 647 1059 L 648 1058 L 648 1057 Z M 987 1048 L 990 1051 L 988 1053 L 988 1055 L 985 1058 L 983 1056 L 981 1056 L 980 1057 L 980 1059 L 981 1060 L 983 1060 L 985 1058 L 988 1061 L 989 1061 L 990 1060 L 991 1060 L 995 1056 L 1000 1061 L 1000 1062 L 998 1064 L 998 1065 L 995 1068 L 993 1068 L 992 1067 L 990 1067 L 986 1071 L 985 1071 L 980 1066 L 978 1068 L 978 1069 L 977 1070 L 979 1072 L 979 1073 L 981 1075 L 981 1076 L 976 1081 L 971 1076 L 971 1075 L 973 1073 L 973 1072 L 974 1071 L 971 1068 L 971 1055 L 977 1049 L 986 1049 Z M 1047 1047 L 1048 1047 L 1051 1050 L 1051 1051 L 1052 1052 L 1053 1051 L 1054 1051 L 1056 1049 L 1058 1049 L 1061 1052 L 1061 1054 L 1063 1056 L 1063 1057 L 1066 1060 L 1066 1062 L 1065 1063 L 1065 1064 L 1064 1065 L 1064 1070 L 1067 1073 L 1067 1074 L 1061 1080 L 1061 1081 L 1060 1082 L 1060 1083 L 1068 1091 L 1068 1092 L 1065 1095 L 1065 1097 L 1066 1098 L 1065 1099 L 1065 1100 L 1064 1101 L 1064 1102 L 1062 1104 L 1062 1105 L 1066 1109 L 1063 1112 L 1062 1112 L 1059 1115 L 1059 1116 L 1055 1120 L 1051 1116 L 1051 1114 L 1054 1111 L 1055 1111 L 1056 1112 L 1059 1109 L 1059 1108 L 1058 1107 L 1057 1108 L 1055 1108 L 1054 1107 L 1052 1107 L 1051 1108 L 1051 1109 L 1048 1112 L 1047 1112 L 1042 1107 L 1042 1106 L 1044 1104 L 1044 1100 L 1046 1098 L 1046 1097 L 1044 1095 L 1043 1095 L 1042 1094 L 1039 1097 L 1035 1097 L 1033 1095 L 1032 1095 L 1029 1092 L 1029 1090 L 1032 1087 L 1033 1087 L 1034 1086 L 1035 1086 L 1036 1085 L 1037 1085 L 1039 1087 L 1040 1087 L 1041 1088 L 1042 1088 L 1047 1083 L 1046 1082 L 1044 1082 L 1043 1081 L 1040 1081 L 1039 1082 L 1038 1082 L 1035 1079 L 1034 1079 L 1033 1078 L 1031 1078 L 1028 1075 L 1028 1074 L 1032 1070 L 1030 1068 L 1030 1067 L 1034 1063 L 1035 1063 L 1037 1061 L 1038 1061 L 1039 1060 L 1042 1060 L 1045 1057 L 1045 1056 L 1046 1055 L 1046 1054 L 1044 1052 L 1044 1050 Z M 635 1045 L 638 1049 L 629 1057 L 628 1060 L 632 1064 L 628 1068 L 623 1070 L 626 1074 L 623 1077 L 621 1077 L 619 1080 L 619 1082 L 625 1086 L 606 1102 L 609 1105 L 606 1108 L 601 1110 L 604 1114 L 602 1116 L 602 1121 L 599 1124 L 593 1115 L 597 1111 L 595 1110 L 593 1112 L 594 1114 L 586 1124 L 587 1127 L 590 1127 L 593 1130 L 591 1136 L 584 1142 L 589 1143 L 593 1149 L 598 1143 L 605 1142 L 607 1140 L 605 1136 L 608 1133 L 612 1136 L 609 1139 L 611 1141 L 616 1141 L 618 1139 L 621 1142 L 621 1145 L 623 1147 L 626 1146 L 625 1141 L 633 1134 L 636 1134 L 644 1142 L 639 1146 L 636 1144 L 631 1145 L 629 1147 L 631 1151 L 628 1154 L 625 1154 L 623 1152 L 621 1153 L 622 1160 L 626 1164 L 624 1169 L 619 1174 L 615 1173 L 612 1174 L 607 1180 L 604 1181 L 601 1184 L 601 1186 L 603 1188 L 599 1192 L 591 1194 L 587 1190 L 584 1196 L 586 1197 L 590 1194 L 593 1198 L 589 1202 L 586 1201 L 577 1206 L 580 1211 L 577 1214 L 575 1212 L 564 1224 L 563 1229 L 558 1234 L 556 1241 L 552 1244 L 546 1237 L 548 1234 L 544 1230 L 545 1229 L 544 1226 L 539 1223 L 534 1223 L 531 1220 L 531 1218 L 534 1215 L 542 1216 L 544 1214 L 543 1208 L 541 1206 L 544 1202 L 553 1199 L 558 1201 L 559 1200 L 557 1197 L 560 1194 L 568 1193 L 570 1191 L 573 1193 L 578 1193 L 580 1191 L 580 1189 L 576 1185 L 571 1191 L 567 1187 L 566 1184 L 563 1185 L 558 1180 L 554 1184 L 557 1189 L 553 1193 L 543 1194 L 540 1191 L 543 1188 L 543 1186 L 541 1184 L 538 1184 L 535 1181 L 539 1177 L 544 1175 L 547 1175 L 550 1178 L 553 1175 L 557 1176 L 559 1174 L 560 1170 L 565 1165 L 562 1161 L 565 1157 L 562 1153 L 565 1150 L 569 1150 L 574 1153 L 577 1150 L 577 1147 L 580 1142 L 578 1139 L 583 1133 L 583 1131 L 578 1126 L 581 1122 L 581 1116 L 588 1111 L 584 1107 L 587 1094 L 583 1090 L 589 1082 L 584 1077 L 592 1069 L 601 1079 L 607 1078 L 614 1072 L 619 1070 L 616 1066 L 622 1062 L 621 1054 L 629 1045 Z M 613 1041 L 610 1044 L 609 1044 L 607 1046 L 607 1048 L 610 1051 L 610 1052 L 606 1056 L 605 1056 L 604 1057 L 603 1057 L 602 1058 L 597 1058 L 596 1059 L 595 1059 L 593 1061 L 592 1061 L 591 1062 L 590 1062 L 585 1057 L 583 1057 L 580 1054 L 583 1051 L 584 1051 L 588 1047 L 589 1047 L 590 1046 L 591 1046 L 592 1045 L 592 1044 L 598 1038 L 607 1038 L 608 1037 L 609 1037 Z M 1088 1030 L 1090 1032 L 1091 1032 L 1096 1037 L 1096 1038 L 1094 1040 L 1094 1043 L 1095 1044 L 1095 1045 L 1096 1046 L 1096 1047 L 1097 1048 L 1097 1049 L 1096 1050 L 1096 1051 L 1097 1052 L 1097 1053 L 1099 1055 L 1099 1056 L 1100 1057 L 1100 1058 L 1096 1062 L 1096 1065 L 1097 1066 L 1097 1067 L 1098 1068 L 1098 1069 L 1097 1070 L 1097 1077 L 1096 1078 L 1096 1081 L 1095 1082 L 1095 1083 L 1096 1084 L 1093 1087 L 1092 1087 L 1091 1088 L 1088 1085 L 1088 1080 L 1089 1079 L 1089 1072 L 1090 1071 L 1090 1068 L 1089 1067 L 1089 1066 L 1088 1065 L 1088 1060 L 1087 1059 L 1088 1058 L 1088 1056 L 1089 1055 L 1089 1054 L 1088 1053 L 1088 1052 L 1087 1051 L 1087 1047 L 1088 1046 L 1088 1044 L 1089 1043 L 1084 1038 L 1084 1034 Z M 642 1029 L 645 1032 L 644 1033 L 644 1034 L 642 1036 L 643 1037 L 640 1040 L 638 1038 L 633 1043 L 631 1043 L 630 1042 L 629 1042 L 626 1039 L 630 1035 L 631 1035 L 632 1034 L 632 1033 L 633 1032 L 633 1030 L 636 1027 L 639 1030 L 641 1030 Z M 605 1013 L 608 1016 L 608 1017 L 607 1018 L 607 1019 L 606 1020 L 608 1022 L 608 1025 L 605 1028 L 604 1028 L 602 1030 L 602 1031 L 599 1034 L 596 1031 L 596 1026 L 600 1022 L 597 1019 L 597 1018 L 600 1015 L 602 1015 L 603 1014 L 604 1014 Z M 975 1012 L 978 1015 L 973 1020 L 972 1020 L 970 1022 L 965 1022 L 964 1023 L 963 1022 L 961 1022 L 959 1024 L 959 1025 L 958 1026 L 958 1029 L 954 1033 L 952 1033 L 950 1035 L 950 1037 L 949 1038 L 949 1039 L 948 1040 L 948 1047 L 944 1051 L 944 1056 L 943 1057 L 943 1058 L 942 1059 L 942 1062 L 941 1063 L 941 1064 L 940 1065 L 940 1067 L 939 1068 L 939 1071 L 938 1072 L 938 1073 L 937 1074 L 937 1076 L 934 1079 L 932 1077 L 930 1077 L 926 1073 L 927 1072 L 927 1071 L 925 1069 L 925 1066 L 929 1062 L 929 1056 L 928 1055 L 929 1054 L 929 1051 L 930 1050 L 930 1047 L 933 1044 L 933 1042 L 932 1041 L 939 1034 L 941 1036 L 945 1032 L 945 1031 L 946 1030 L 946 1028 L 945 1027 L 948 1024 L 949 1024 L 950 1023 L 952 1023 L 953 1022 L 953 1020 L 956 1017 L 961 1017 L 964 1014 L 967 1014 L 968 1015 L 970 1015 L 971 1014 L 972 1014 L 973 1013 L 974 1013 Z M 1038 1008 L 1035 1011 L 1031 1011 L 1030 1012 L 1028 1012 L 1027 1013 L 1025 1013 L 1024 1014 L 1024 1015 L 1020 1019 L 1019 1019 L 1017 1017 L 1016 1017 L 1015 1016 L 1014 1016 L 1011 1013 L 1011 1012 L 1014 1009 L 1016 1009 L 1017 1008 L 1025 1008 L 1026 1007 L 1027 1007 L 1028 1006 L 1031 1006 L 1032 1005 L 1035 1005 Z M 1046 1009 L 1049 1006 L 1053 1006 L 1054 1007 L 1055 1007 L 1058 1004 L 1068 1004 L 1069 1005 L 1070 1005 L 1073 1008 L 1075 1008 L 1076 1009 L 1079 1009 L 1084 1014 L 1084 1015 L 1083 1016 L 1083 1017 L 1084 1018 L 1084 1019 L 1086 1021 L 1086 1023 L 1087 1024 L 1087 1025 L 1084 1028 L 1083 1027 L 1079 1027 L 1076 1024 L 1076 1021 L 1074 1019 L 1071 1019 L 1070 1020 L 1069 1020 L 1067 1018 L 1058 1018 L 1057 1017 L 1056 1017 L 1055 1016 L 1050 1016 L 1047 1013 L 1047 1012 L 1046 1011 Z M 632 981 L 639 981 L 640 980 L 643 983 L 643 984 L 642 985 L 642 987 L 641 988 L 641 989 L 642 990 L 642 993 L 644 995 L 644 996 L 645 997 L 645 998 L 646 999 L 648 999 L 649 998 L 651 998 L 655 1002 L 655 1003 L 656 1004 L 656 1006 L 655 1007 L 655 1008 L 649 1014 L 647 1012 L 645 1014 L 647 1016 L 650 1013 L 651 1013 L 652 1014 L 654 1014 L 657 1017 L 652 1022 L 652 1024 L 649 1027 L 647 1025 L 645 1025 L 644 1026 L 637 1026 L 636 1027 L 635 1026 L 634 1026 L 631 1023 L 631 1022 L 626 1017 L 629 1014 L 629 1013 L 628 1012 L 621 1012 L 617 1008 L 620 1005 L 621 1005 L 622 1004 L 623 1004 L 633 994 L 633 992 L 631 990 L 630 990 L 627 987 L 627 986 Z M 616 961 L 619 964 L 616 967 L 616 972 L 609 979 L 609 980 L 608 981 L 608 984 L 609 985 L 609 986 L 613 990 L 613 991 L 612 992 L 612 993 L 610 995 L 610 996 L 607 999 L 606 999 L 601 994 L 601 988 L 600 987 L 600 984 L 601 983 L 601 979 L 602 978 L 602 977 L 603 976 L 603 975 L 604 974 L 604 971 L 603 970 L 602 970 L 599 967 L 602 964 L 603 964 L 604 963 L 609 963 L 610 962 L 612 962 L 613 961 Z M 841 937 L 836 942 L 835 941 L 832 941 L 831 942 L 829 942 L 825 938 L 823 938 L 820 941 L 822 943 L 819 946 L 816 946 L 815 947 L 814 947 L 812 949 L 814 951 L 819 951 L 820 952 L 822 952 L 823 951 L 823 950 L 824 949 L 824 948 L 822 946 L 825 943 L 827 943 L 833 949 L 825 957 L 823 957 L 822 958 L 821 958 L 820 959 L 820 960 L 819 961 L 819 963 L 820 964 L 820 967 L 817 970 L 816 969 L 814 969 L 813 968 L 812 969 L 810 969 L 809 970 L 800 970 L 797 967 L 797 963 L 798 962 L 798 957 L 795 954 L 795 952 L 797 950 L 797 949 L 795 947 L 795 945 L 794 944 L 794 943 L 792 941 L 795 938 L 797 938 L 798 939 L 799 939 L 800 940 L 801 940 L 804 943 L 809 938 L 813 938 L 815 936 L 815 934 L 813 932 L 816 929 L 817 929 L 818 930 L 819 930 L 821 932 L 823 932 L 824 931 L 825 931 L 829 935 L 836 935 L 837 934 L 838 934 Z M 801 926 L 801 927 L 798 930 L 797 930 L 796 929 L 793 929 L 791 931 L 790 936 L 793 939 L 790 942 L 789 942 L 788 943 L 790 946 L 790 951 L 787 954 L 786 954 L 782 950 L 781 950 L 778 952 L 775 952 L 774 951 L 771 950 L 770 951 L 769 951 L 768 952 L 766 952 L 765 953 L 764 952 L 761 951 L 759 954 L 759 956 L 761 958 L 757 962 L 753 962 L 750 960 L 748 960 L 747 959 L 746 959 L 743 956 L 746 953 L 749 953 L 752 955 L 754 953 L 754 951 L 753 950 L 750 950 L 749 951 L 748 951 L 747 950 L 744 950 L 743 949 L 741 949 L 740 950 L 740 952 L 743 955 L 743 956 L 740 959 L 739 959 L 738 960 L 729 960 L 728 961 L 726 961 L 725 962 L 723 962 L 722 961 L 721 962 L 720 961 L 718 961 L 717 960 L 712 960 L 710 962 L 701 962 L 700 961 L 693 961 L 691 959 L 690 960 L 688 960 L 687 959 L 684 958 L 679 954 L 678 954 L 673 949 L 673 948 L 675 946 L 675 940 L 676 939 L 674 936 L 677 933 L 680 933 L 684 937 L 683 938 L 683 943 L 682 944 L 682 946 L 684 948 L 688 948 L 689 947 L 692 950 L 690 952 L 690 954 L 691 955 L 692 955 L 695 953 L 703 953 L 704 952 L 704 951 L 707 948 L 710 951 L 712 951 L 714 949 L 716 949 L 721 953 L 728 953 L 729 952 L 731 952 L 733 950 L 731 947 L 728 946 L 725 943 L 725 941 L 723 939 L 723 938 L 724 937 L 720 932 L 720 929 L 724 925 L 732 925 L 733 924 L 735 924 L 740 918 L 742 918 L 743 919 L 745 919 L 746 918 L 747 919 L 758 919 L 763 924 L 766 921 L 767 921 L 770 924 L 770 925 L 771 926 L 770 929 L 773 932 L 774 932 L 776 930 L 777 930 L 778 931 L 786 931 L 787 930 L 787 928 L 781 923 L 784 920 L 786 920 L 789 918 L 792 921 L 792 922 L 793 923 L 798 923 Z M 766 907 L 762 911 L 762 912 L 758 916 L 757 915 L 756 915 L 755 914 L 754 914 L 753 915 L 752 915 L 751 916 L 749 916 L 747 914 L 746 914 L 744 912 L 743 912 L 741 914 L 737 914 L 734 911 L 737 908 L 741 908 L 743 910 L 744 910 L 748 906 L 751 906 L 752 907 L 754 907 L 757 904 L 763 904 Z M 980 900 L 981 900 L 984 903 L 984 909 L 985 910 L 985 912 L 982 915 L 984 917 L 984 922 L 986 924 L 988 922 L 988 920 L 991 917 L 994 917 L 995 918 L 998 918 L 999 917 L 1002 920 L 1001 922 L 1005 926 L 1008 925 L 1011 928 L 1012 927 L 1011 926 L 1010 927 L 1005 921 L 1005 920 L 1008 917 L 1010 917 L 1013 920 L 1012 921 L 1014 923 L 1015 922 L 1012 919 L 1020 912 L 1022 911 L 1026 911 L 1029 914 L 1028 916 L 1030 917 L 1032 915 L 1031 911 L 1034 908 L 1039 913 L 1039 915 L 1043 919 L 1042 923 L 1045 927 L 1044 931 L 1048 936 L 1040 943 L 1043 946 L 1043 947 L 1040 950 L 1041 954 L 1039 957 L 1046 965 L 1041 969 L 1041 971 L 1045 975 L 1043 979 L 1045 983 L 1042 987 L 1043 988 L 1040 991 L 1035 993 L 1033 992 L 1031 993 L 1027 993 L 1025 991 L 1023 992 L 1019 992 L 1009 987 L 1006 987 L 1005 988 L 1002 985 L 1004 983 L 1004 981 L 1003 980 L 1006 977 L 1012 977 L 1021 971 L 1026 976 L 1023 979 L 1022 978 L 1019 979 L 1017 981 L 1017 983 L 1018 984 L 1024 983 L 1026 981 L 1024 978 L 1028 974 L 1029 975 L 1032 975 L 1036 969 L 1036 965 L 1034 962 L 1032 963 L 1032 967 L 1029 970 L 1026 970 L 1023 967 L 1024 961 L 1025 960 L 1025 955 L 1024 954 L 1024 952 L 1021 949 L 1019 948 L 1015 948 L 1011 946 L 1003 946 L 998 948 L 991 954 L 991 957 L 993 960 L 992 967 L 999 971 L 1005 977 L 1002 980 L 1000 980 L 999 981 L 1000 984 L 1002 986 L 998 990 L 995 991 L 990 995 L 986 995 L 983 992 L 983 991 L 989 986 L 988 981 L 990 979 L 986 975 L 986 972 L 981 967 L 985 963 L 983 961 L 984 957 L 979 952 L 981 950 L 978 947 L 978 946 L 981 943 L 985 944 L 987 942 L 986 940 L 986 936 L 985 935 L 985 932 L 987 929 L 985 927 L 980 931 L 977 928 L 977 924 L 978 922 L 976 919 L 978 915 L 975 912 L 974 907 Z M 704 895 L 709 895 L 712 898 L 712 899 L 710 901 L 710 902 L 711 903 L 713 903 L 714 904 L 715 904 L 716 905 L 718 905 L 721 908 L 721 909 L 718 912 L 717 912 L 714 915 L 707 915 L 703 911 L 703 908 L 704 907 L 704 905 L 703 904 L 702 904 L 699 901 L 699 900 Z M 719 884 L 722 884 L 723 885 L 725 885 L 732 892 L 732 893 L 728 897 L 728 898 L 725 901 L 724 900 L 722 900 L 721 899 L 720 899 L 719 900 L 714 900 L 711 897 L 711 896 L 712 895 L 712 894 L 711 893 L 711 892 L 714 889 L 716 889 L 717 888 L 716 887 Z M 669 875 L 672 878 L 669 881 L 666 882 L 660 888 L 657 888 L 655 890 L 647 890 L 644 892 L 644 897 L 646 900 L 646 901 L 645 902 L 645 904 L 646 905 L 647 905 L 649 907 L 653 907 L 654 908 L 655 908 L 656 907 L 660 907 L 663 910 L 662 911 L 662 914 L 664 916 L 666 916 L 668 914 L 669 914 L 670 913 L 672 913 L 673 912 L 670 909 L 673 906 L 676 906 L 680 910 L 677 913 L 678 914 L 678 915 L 675 918 L 673 918 L 672 919 L 672 921 L 669 924 L 668 924 L 667 923 L 663 923 L 662 924 L 659 924 L 658 925 L 658 926 L 654 930 L 654 931 L 656 933 L 659 934 L 663 938 L 663 939 L 659 943 L 658 942 L 656 942 L 655 941 L 653 941 L 652 942 L 652 945 L 649 948 L 644 948 L 641 945 L 641 943 L 642 942 L 642 941 L 641 940 L 638 939 L 635 936 L 638 933 L 638 932 L 637 931 L 636 931 L 633 934 L 635 936 L 632 939 L 631 939 L 625 933 L 625 932 L 627 930 L 627 927 L 624 925 L 622 925 L 618 921 L 618 919 L 616 917 L 616 914 L 617 913 L 615 911 L 615 910 L 621 904 L 620 903 L 620 902 L 624 898 L 627 899 L 629 897 L 629 896 L 632 893 L 633 893 L 634 894 L 636 894 L 639 891 L 639 889 L 643 885 L 643 884 L 646 881 L 646 878 L 645 877 L 645 876 L 648 873 L 649 873 L 652 876 L 652 877 L 653 878 L 653 881 L 655 883 L 656 882 L 656 881 L 659 878 L 660 878 L 661 877 L 666 877 Z M 1107 856 L 1104 859 L 1103 859 L 1102 860 L 1100 860 L 1098 862 L 1096 862 L 1095 863 L 1091 863 L 1090 862 L 1087 862 L 1084 859 L 1087 856 L 1088 856 L 1089 855 L 1090 855 L 1091 854 L 1093 854 L 1094 855 L 1095 855 L 1098 852 L 1102 852 L 1103 853 L 1104 853 Z M 611 845 L 612 845 L 616 849 L 615 850 L 615 851 L 616 852 L 616 853 L 613 856 L 612 856 L 611 857 L 611 858 L 612 859 L 615 859 L 616 860 L 619 857 L 616 854 L 616 853 L 618 851 L 616 849 L 619 846 L 622 849 L 621 850 L 624 853 L 624 855 L 623 856 L 623 857 L 624 858 L 624 859 L 625 860 L 625 861 L 626 862 L 626 865 L 625 866 L 625 867 L 622 870 L 621 869 L 620 869 L 619 868 L 615 868 L 614 869 L 611 869 L 607 865 L 607 860 L 609 858 L 609 857 L 606 854 L 606 853 L 607 852 L 607 851 L 608 850 L 608 848 Z M 828 836 L 832 839 L 838 838 L 841 841 L 841 848 L 849 844 L 853 847 L 849 852 L 855 857 L 852 860 L 855 863 L 852 866 L 850 866 L 846 862 L 843 862 L 840 865 L 840 867 L 845 872 L 855 873 L 861 872 L 863 870 L 863 862 L 867 858 L 865 855 L 865 848 L 861 842 L 864 839 L 873 840 L 877 836 L 885 838 L 892 843 L 890 846 L 890 850 L 896 855 L 907 871 L 917 879 L 918 885 L 926 886 L 932 891 L 937 891 L 941 894 L 944 893 L 948 895 L 956 895 L 959 898 L 958 903 L 960 907 L 958 910 L 958 917 L 955 920 L 956 928 L 961 933 L 957 939 L 959 946 L 956 949 L 959 952 L 958 961 L 956 964 L 958 966 L 957 970 L 960 975 L 958 978 L 958 982 L 955 985 L 951 982 L 952 979 L 947 974 L 943 972 L 938 972 L 938 976 L 935 979 L 936 981 L 933 984 L 926 982 L 910 989 L 906 993 L 898 992 L 886 994 L 875 986 L 871 986 L 867 989 L 864 985 L 868 980 L 858 976 L 854 972 L 843 970 L 831 972 L 828 969 L 829 962 L 827 959 L 833 955 L 831 951 L 834 948 L 840 947 L 843 950 L 840 953 L 838 959 L 840 961 L 846 962 L 847 960 L 843 956 L 843 952 L 846 949 L 852 955 L 860 947 L 865 954 L 862 957 L 857 958 L 853 964 L 855 968 L 860 970 L 863 969 L 863 964 L 870 959 L 869 957 L 873 951 L 871 949 L 866 949 L 861 946 L 859 947 L 854 943 L 847 946 L 844 943 L 847 939 L 840 934 L 842 932 L 835 929 L 829 931 L 825 927 L 819 927 L 815 923 L 809 923 L 806 920 L 806 916 L 804 914 L 807 911 L 812 910 L 816 906 L 819 906 L 823 911 L 826 911 L 831 906 L 834 909 L 832 911 L 832 915 L 836 917 L 843 917 L 849 912 L 853 916 L 857 913 L 854 910 L 850 913 L 847 910 L 850 906 L 854 908 L 856 905 L 849 905 L 846 902 L 846 896 L 844 894 L 841 895 L 836 901 L 831 902 L 827 899 L 825 895 L 829 890 L 832 892 L 836 890 L 826 883 L 829 879 L 834 884 L 843 882 L 845 878 L 840 877 L 837 880 L 834 877 L 838 873 L 832 868 L 835 865 L 833 863 L 835 859 L 834 858 L 829 862 L 826 862 L 823 859 L 827 855 L 832 855 L 835 852 L 830 847 L 822 849 L 819 846 L 819 844 Z M 739 819 L 743 823 L 743 829 L 744 830 L 744 831 L 741 834 L 736 834 L 735 835 L 734 835 L 733 834 L 732 834 L 729 831 L 734 826 L 734 824 L 733 823 L 733 822 L 736 819 Z M 1055 818 L 1052 821 L 1052 823 L 1053 824 L 1053 827 L 1052 828 L 1052 831 L 1051 832 L 1051 835 L 1048 838 L 1046 836 L 1042 836 L 1040 838 L 1039 838 L 1038 839 L 1037 839 L 1036 838 L 1032 838 L 1031 837 L 1024 837 L 1023 838 L 1021 838 L 1020 839 L 1010 839 L 1009 840 L 1008 840 L 1005 837 L 1008 834 L 1008 833 L 1006 831 L 1005 831 L 1003 833 L 1003 834 L 1005 836 L 1002 839 L 1001 839 L 1000 840 L 996 840 L 995 839 L 993 839 L 992 838 L 985 838 L 984 839 L 976 839 L 975 840 L 972 840 L 971 839 L 968 839 L 967 838 L 966 839 L 959 839 L 958 840 L 956 840 L 953 843 L 950 840 L 951 839 L 951 837 L 950 836 L 947 836 L 946 837 L 944 837 L 941 834 L 941 833 L 945 829 L 945 827 L 948 824 L 950 824 L 952 822 L 952 821 L 955 818 L 956 819 L 958 819 L 959 820 L 961 820 L 962 819 L 966 819 L 967 818 L 968 818 L 970 816 L 975 816 L 976 817 L 979 817 L 980 816 L 981 816 L 982 817 L 984 817 L 986 815 L 986 814 L 989 811 L 995 811 L 999 807 L 1004 807 L 1007 810 L 1002 815 L 1002 816 L 1004 818 L 1005 818 L 1006 817 L 1007 817 L 1010 814 L 1010 813 L 1007 810 L 1007 809 L 1010 806 L 1015 806 L 1016 805 L 1023 805 L 1025 807 L 1026 806 L 1029 806 L 1030 805 L 1035 805 L 1037 803 L 1039 803 L 1042 806 L 1042 807 L 1044 809 L 1046 809 L 1049 812 L 1049 813 L 1050 814 L 1051 814 Z M 815 791 L 818 794 L 816 796 L 817 797 L 814 800 L 813 799 L 807 805 L 804 805 L 801 808 L 800 808 L 799 809 L 799 810 L 800 811 L 801 811 L 804 814 L 800 818 L 800 820 L 797 823 L 796 823 L 792 819 L 795 816 L 795 814 L 793 812 L 793 811 L 796 808 L 795 807 L 795 804 L 798 801 L 799 801 L 800 800 L 801 800 L 804 797 L 805 797 L 806 796 L 806 795 L 805 794 L 808 791 L 812 791 L 813 792 L 814 792 Z M 629 777 L 632 780 L 633 780 L 636 783 L 634 785 L 634 787 L 636 789 L 634 791 L 634 792 L 632 794 L 632 796 L 628 800 L 625 800 L 624 799 L 622 801 L 622 802 L 624 804 L 624 805 L 623 806 L 623 807 L 628 812 L 628 813 L 619 822 L 618 822 L 614 818 L 616 816 L 616 814 L 614 812 L 614 811 L 617 808 L 617 804 L 620 801 L 617 798 L 617 797 L 620 794 L 621 795 L 622 795 L 623 796 L 625 794 L 625 793 L 626 792 L 626 790 L 627 789 L 627 785 L 626 784 L 626 783 L 625 782 L 625 780 L 628 777 Z M 666 774 L 669 771 L 671 771 L 673 769 L 673 768 L 671 766 L 674 763 L 677 766 L 675 768 L 676 769 L 677 769 L 679 771 L 680 770 L 680 769 L 679 768 L 679 766 L 682 763 L 692 773 L 687 778 L 685 778 L 684 777 L 683 777 L 679 773 L 676 776 L 674 776 L 673 777 L 669 777 Z M 655 752 L 657 752 L 660 755 L 659 756 L 659 757 L 660 758 L 662 758 L 663 757 L 666 757 L 669 760 L 669 763 L 670 764 L 666 768 L 665 768 L 664 767 L 663 767 L 662 766 L 659 766 L 654 771 L 651 768 L 651 765 L 652 764 L 652 762 L 654 760 L 654 758 L 652 756 L 652 755 Z M 708 745 L 711 748 L 710 749 L 711 750 L 711 751 L 708 754 L 707 754 L 706 755 L 705 755 L 703 757 L 704 758 L 706 758 L 709 761 L 704 766 L 700 762 L 698 762 L 697 763 L 697 766 L 694 769 L 692 769 L 689 766 L 689 765 L 693 761 L 693 758 L 692 757 L 692 756 L 691 755 L 691 754 L 690 753 L 690 752 L 691 751 L 691 750 L 694 747 L 695 747 L 698 750 L 700 750 L 702 748 L 703 748 L 706 745 Z M 765 724 L 769 728 L 769 729 L 768 730 L 768 731 L 770 733 L 770 736 L 767 739 L 766 739 L 764 741 L 764 742 L 767 745 L 764 748 L 755 748 L 754 747 L 753 747 L 750 744 L 751 743 L 751 740 L 754 737 L 756 737 L 757 736 L 758 736 L 759 735 L 760 735 L 762 733 L 762 732 L 761 731 L 761 730 L 760 729 L 760 727 L 763 724 Z M 762 616 L 765 613 L 768 613 L 769 612 L 771 612 L 776 617 L 777 617 L 782 612 L 785 615 L 786 615 L 787 616 L 788 616 L 791 619 L 788 622 L 787 622 L 786 623 L 785 623 L 784 624 L 787 627 L 783 631 L 782 631 L 779 628 L 780 627 L 780 626 L 781 625 L 781 624 L 780 623 L 779 623 L 777 621 L 776 621 L 774 623 L 773 623 L 772 622 L 770 622 L 768 620 L 767 620 L 766 619 L 765 619 Z M 801 591 L 805 590 L 808 593 L 808 600 L 811 601 L 816 598 L 820 603 L 822 597 L 817 597 L 812 591 L 815 588 L 820 589 L 825 587 L 828 590 L 825 596 L 830 601 L 827 604 L 831 611 L 834 609 L 834 606 L 830 602 L 836 597 L 839 600 L 845 599 L 858 612 L 866 610 L 880 613 L 884 611 L 897 612 L 901 605 L 904 607 L 910 605 L 914 609 L 922 612 L 926 617 L 934 620 L 955 620 L 958 623 L 958 632 L 954 638 L 954 641 L 957 644 L 956 653 L 952 657 L 952 661 L 958 666 L 958 671 L 943 682 L 945 686 L 959 696 L 955 701 L 957 709 L 955 718 L 957 722 L 954 725 L 959 734 L 953 759 L 953 765 L 956 770 L 956 783 L 954 786 L 955 797 L 951 801 L 948 800 L 932 810 L 927 807 L 925 809 L 927 811 L 924 814 L 907 820 L 900 820 L 894 825 L 893 830 L 889 834 L 881 834 L 877 829 L 870 834 L 867 834 L 864 831 L 865 823 L 868 820 L 864 815 L 867 808 L 865 802 L 868 799 L 873 801 L 873 797 L 876 793 L 870 788 L 874 784 L 873 782 L 867 784 L 862 783 L 857 787 L 855 794 L 858 797 L 849 803 L 852 806 L 858 804 L 861 807 L 856 810 L 852 816 L 845 816 L 843 818 L 848 824 L 841 830 L 842 836 L 839 839 L 834 836 L 830 830 L 826 831 L 823 826 L 827 822 L 833 826 L 835 825 L 831 821 L 831 817 L 825 812 L 828 809 L 831 811 L 836 809 L 833 801 L 843 793 L 843 789 L 841 787 L 836 788 L 832 782 L 830 783 L 827 780 L 827 773 L 823 767 L 816 766 L 812 770 L 806 772 L 805 775 L 811 775 L 814 778 L 803 792 L 796 790 L 789 797 L 784 796 L 781 793 L 787 785 L 779 781 L 777 782 L 779 785 L 777 791 L 774 794 L 766 796 L 763 793 L 763 785 L 766 782 L 771 782 L 767 781 L 763 774 L 756 774 L 753 771 L 757 767 L 753 761 L 757 755 L 760 755 L 764 751 L 771 756 L 773 755 L 769 751 L 772 747 L 772 741 L 777 736 L 775 732 L 779 728 L 775 723 L 779 715 L 776 712 L 783 707 L 772 697 L 774 694 L 770 690 L 767 690 L 763 685 L 766 682 L 770 684 L 774 679 L 781 680 L 786 685 L 790 686 L 796 679 L 802 676 L 806 676 L 811 682 L 818 681 L 820 679 L 816 674 L 823 668 L 824 656 L 828 652 L 821 647 L 821 643 L 825 639 L 823 635 L 827 631 L 825 628 L 826 623 L 820 621 L 816 625 L 812 620 L 816 616 L 822 614 L 824 610 L 820 609 L 815 611 L 811 607 L 802 608 L 799 605 L 802 602 L 802 599 L 798 594 Z M 1033 582 L 1036 585 L 1036 589 L 1035 590 L 1036 597 L 1031 602 L 1031 604 L 1036 609 L 1033 614 L 1034 618 L 1039 622 L 1034 627 L 1034 629 L 1032 632 L 1036 636 L 1036 641 L 1038 643 L 1036 647 L 1036 652 L 1037 653 L 1034 656 L 1030 656 L 1028 658 L 1020 658 L 1015 664 L 1016 670 L 1013 673 L 1010 670 L 1008 671 L 1010 676 L 1010 679 L 1005 684 L 1007 685 L 1012 680 L 1021 680 L 1022 679 L 1025 679 L 1027 681 L 1030 681 L 1034 679 L 1038 684 L 1035 687 L 1033 687 L 1032 688 L 1033 690 L 1018 704 L 1021 705 L 1025 701 L 1027 701 L 1030 704 L 1026 708 L 1026 712 L 1034 719 L 1028 724 L 1031 728 L 1028 733 L 1033 739 L 1033 741 L 1030 744 L 1028 743 L 1025 746 L 1025 749 L 1022 752 L 1017 748 L 1016 744 L 1012 739 L 1010 740 L 1007 740 L 1006 739 L 993 739 L 981 751 L 981 754 L 978 757 L 975 754 L 975 751 L 972 748 L 975 741 L 974 739 L 980 734 L 984 734 L 985 733 L 988 733 L 990 735 L 993 734 L 993 727 L 992 726 L 989 728 L 984 729 L 981 732 L 977 728 L 978 720 L 976 716 L 976 713 L 973 709 L 973 707 L 976 704 L 976 700 L 978 697 L 986 690 L 986 684 L 983 682 L 982 683 L 982 686 L 978 690 L 970 681 L 970 678 L 975 674 L 982 679 L 985 676 L 989 679 L 992 679 L 994 677 L 992 673 L 987 674 L 985 676 L 978 671 L 977 666 L 980 663 L 983 662 L 974 655 L 977 651 L 982 652 L 986 647 L 990 650 L 993 648 L 993 646 L 991 644 L 988 644 L 985 646 L 979 646 L 975 642 L 975 640 L 973 638 L 976 631 L 979 628 L 983 630 L 988 625 L 991 624 L 991 621 L 990 620 L 985 621 L 980 616 L 980 613 L 984 608 L 989 613 L 991 612 L 988 607 L 988 604 L 989 603 L 988 598 L 989 596 L 984 588 L 990 583 L 1009 582 L 1010 583 L 1019 583 L 1021 584 L 1024 581 Z M 1372 565 L 1379 572 L 1369 582 L 1382 590 L 1378 596 L 1369 594 L 1367 601 L 1372 606 L 1372 623 L 1384 629 L 1380 635 L 1376 634 L 1382 645 L 1376 651 L 1384 650 L 1386 659 L 1391 663 L 1388 683 L 1380 687 L 1375 706 L 1381 714 L 1379 720 L 1385 715 L 1390 718 L 1376 727 L 1388 737 L 1380 740 L 1377 747 L 1390 752 L 1388 757 L 1383 755 L 1381 759 L 1390 757 L 1393 765 L 1388 775 L 1379 771 L 1374 777 L 1380 775 L 1384 779 L 1378 784 L 1380 790 L 1374 797 L 1379 802 L 1375 807 L 1382 813 L 1377 818 L 1378 830 L 1374 834 L 1379 839 L 1374 845 L 1377 855 L 1372 876 L 1374 922 L 1366 933 L 1369 936 L 1363 946 L 1364 953 L 1348 971 L 1338 969 L 1323 979 L 1305 982 L 1290 980 L 1286 988 L 1279 980 L 1265 984 L 1260 977 L 1263 985 L 1257 991 L 1252 986 L 1241 988 L 1236 984 L 1224 984 L 1220 988 L 1213 986 L 1204 990 L 1200 995 L 1186 994 L 1183 991 L 1187 986 L 1171 995 L 1122 992 L 1108 995 L 1104 979 L 1109 972 L 1125 971 L 1129 967 L 1140 971 L 1146 968 L 1148 977 L 1152 970 L 1144 960 L 1148 955 L 1144 946 L 1149 939 L 1140 934 L 1131 941 L 1130 947 L 1123 943 L 1123 937 L 1127 933 L 1132 935 L 1141 924 L 1130 922 L 1132 929 L 1127 933 L 1120 927 L 1122 922 L 1119 918 L 1127 908 L 1139 915 L 1147 908 L 1150 911 L 1161 901 L 1169 907 L 1167 901 L 1171 893 L 1168 889 L 1173 884 L 1177 891 L 1180 883 L 1174 885 L 1162 877 L 1170 870 L 1169 867 L 1155 872 L 1152 869 L 1164 858 L 1169 858 L 1159 853 L 1163 849 L 1170 850 L 1170 840 L 1161 841 L 1150 829 L 1154 822 L 1166 820 L 1166 816 L 1157 818 L 1152 810 L 1145 814 L 1149 829 L 1146 835 L 1150 839 L 1146 851 L 1139 845 L 1143 841 L 1139 835 L 1142 828 L 1131 823 L 1134 820 L 1139 822 L 1140 815 L 1109 807 L 1085 810 L 1076 803 L 1083 795 L 1079 788 L 1081 785 L 1076 781 L 1079 776 L 1083 778 L 1078 775 L 1080 760 L 1074 754 L 1079 739 L 1066 735 L 1076 722 L 1067 716 L 1070 710 L 1065 697 L 1077 685 L 1070 674 L 1078 672 L 1087 661 L 1081 658 L 1082 654 L 1074 656 L 1071 648 L 1083 642 L 1086 645 L 1083 649 L 1090 654 L 1099 634 L 1092 632 L 1084 638 L 1078 633 L 1076 641 L 1073 631 L 1079 624 L 1087 624 L 1094 613 L 1090 612 L 1085 617 L 1080 610 L 1075 621 L 1065 612 L 1075 605 L 1086 607 L 1091 601 L 1119 603 L 1123 607 L 1114 613 L 1124 620 L 1130 618 L 1135 621 L 1146 611 L 1140 602 L 1144 598 L 1142 595 L 1147 591 L 1150 594 L 1147 598 L 1155 599 L 1159 589 L 1166 601 L 1191 602 L 1201 612 L 1206 602 L 1213 605 L 1217 601 L 1223 607 L 1226 604 L 1220 600 L 1227 594 L 1231 600 L 1238 596 L 1243 599 L 1246 588 L 1251 593 L 1261 583 L 1264 586 L 1257 591 L 1270 593 L 1274 587 L 1305 587 L 1308 590 L 1298 597 L 1303 598 L 1306 605 L 1299 607 L 1297 613 L 1309 614 L 1310 594 L 1337 567 L 1355 569 L 1364 564 Z" fill="#000" fill-rule="evenodd" />
</svg>
